<?xml version="1.0" encoding="UTF-8" standalone="no"?>
<svg
   xmlns:dc="http://purl.org/dc/elements/1.1/"
   xmlns:cc="http://creativecommons.org/ns#"
   xmlns:rdf="http://www.w3.org/1999/02/22-rdf-syntax-ns#"
   xmlns:svg="http://www.w3.org/2000/svg"
   xmlns="http://www.w3.org/2000/svg"
   xmlns:xlink="http://www.w3.org/1999/xlink"
   width="300"
   height="100"
   viewBox="0 0 300 100"
   version="1.1"
   id="svg8">
  <defs
     id="defs2">
    <linearGradient
       id="linearGradient2135">
      <stop
         id="stop2131"
         offset="0"
         style="stop-color:#ff4655;stop-opacity:0.58823532" />
      <stop
         id="stop2133"
         offset="1"
         style="stop-color:#ff4655;stop-opacity:0;" />
    </linearGradient>
    <linearGradient
       gradientTransform="translate(-2.0894236,1.6934794)"
       gradientUnits="userSpaceOnUse"
       y2="100.01051"
       x2="154.05988"
       y1="0.39999855"
       x1="154.05988"
       id="linearGradient2137"
       xlink:href="#linearGradient2135" />
  </defs>
  <metadata
     id="metadata5">
    <rdf:RDF>
      <cc:Work
         rdf:about="">
        <dc:format>image/svg+xml</dc:format>
        <dc:type
           rdf:resource="http://purl.org/dc/dcmitype/StillImage" />
        <dc:title></dc:title>
      </cc:Work>
    </rdf:RDF>
  </metadata>
  <path
     id="path2126"
     d="m 62.066826,23.099729 -1.105469,4.125 -2.144531,4.654297 H 25.223076 V 31.220823 H 14.707451 c -2.669073,0 -2.533158,6.02539 0,6.02539 h 8.654297 l 1.697266,-0.980468 h 32.662109 l -2.628906,7.699218 h 6.90039 c -2.19003,0.01372 -2.200199,5.404297 0,5.404297 h 48.490233 l 3.58007,1.751953 h 7.04688 v -6.755859 h 9.01758 c 1.84747,0 4.18444,3.928459 1.02343,7.376953 2.8195,0.131028 4.4693,1.737231 4.34571,4.308594 l 5.95117,12.779297 c -0.60856,1.180619 -0.75274,3.193531 1.02148,2.11914 l 6.57422,-3.980468 c 1.33536,-0.808637 1.65575,-2.089712 0.29102,-4.636719 L 142.50627,49.58801 c -1.41012,-2.631714 -0.77713,-5.441406 2.55664,-5.441406 h 15.33594 l 1.57031,1.460937 h 3.06641 c -2.40182,1.897093 -2.26046,20.989714 0,23.369141 l 2.08203,2.191406 15.8457,0.583985 3.21485,-3.359375 0.0723,-13.875 c 1.21225,1.821172 3.08934,2.701172 5.4043,2.701172 h 5.55078 l 1.49805,-0.865235 h 5.80469 c 1.96224,0 2.89498,3.962856 0.4375,5.392578 3.16505,-0.726977 4.16032,1.478678 4.38086,3.871094 l 3.87109,7.886719 c -1.09768,1.624052 -1.36527,4.429189 0.97656,2.990234 l 8.57227,-5.267578 c 1.38211,-0.849251 2.10173,-1.526889 0.51562,-4.027344 l -8.77929,-13.839843 c -2.31661,-3.652067 -0.043,-7.21745 4.02929,-7.126954 l 4.64649,0.103516 1.85937,-1.548828 h 13.73633 l 42.60156,23.238281 c 2.8589,1.559401 5.68685,-0.273623 5.73242,-4.029297 0.0281,-2.313556 -1.61906,-8.140624 -1.70507,-12.753906 -0.0934,-5.008206 1.90657,-11.179895 1.85937,-13.21875 -0.098,-4.233085 -2.63974,-4.456987 -7.22851,-4.441406 l -30.41602,0.103516 c -10.63108,0.0361 -18.0922,-4.085709 -26.95508,-6.507813 h -5.52539 v -3.716797 l -8.7793,1.445313 v 2.271484 h -8.21093 v -1.703125 l -2.375,-1.136719 h -5.83594 l -9.08789,1.394531 v 1.548829 h -66.7168 l -2.13086,1.230468 H 90.756279 L 89.574638,27.328245 H 65.402764 V 23.099729 Z M 187.30901,46.996213 h 4.19922 c 5.89592,0 5.07056,3.629854 3.83398,5.914063 2.13539,-1.659435 3.29471,-3.757081 1.49805,-5.769531 h 3.32226 c 4.58685,0 2.00465,8.142578 -3.21289,8.142578 h -6.82812 c -3.0805,0 -5.90761,-8.28711 -2.8125,-8.28711 z"
     style="fill:url(#linearGradient2137);fill-opacity:1;stroke:#ff4655;stroke-width:2;stroke-linecap:butt;stroke-linejoin:miter;stroke-miterlimit:4;stroke-dasharray:none;stroke-opacity:1" />
</svg>
