<?xml version="1.0" encoding="UTF-8" standalone="no"?>
<svg
   xmlns:dc="http://purl.org/dc/elements/1.1/"
   xmlns:cc="http://creativecommons.org/ns#"
   xmlns:rdf="http://www.w3.org/1999/02/22-rdf-syntax-ns#"
   xmlns:svg="http://www.w3.org/2000/svg"
   xmlns="http://www.w3.org/2000/svg"
   xmlns:xlink="http://www.w3.org/1999/xlink"
   id="svg8"
   version="1.1"
   viewBox="0 0 400 400"
   height="400"
   width="400">
  <defs
     id="defs2">
    <linearGradient
       id="linearGradient847">
      <stop
         id="stop843"
         offset="0"
         style="stop-color:#ff4655;stop-opacity:0" />
      <stop
         id="stop845"
         offset="1"
         style="stop-color:#ff4655;stop-opacity:0.58823532" />
    </linearGradient>
    <linearGradient
       gradientUnits="userSpaceOnUse"
       y2="0.15178813"
       x2="205.80803"
       y1="400.17221"
       x1="205.80803"
       id="linearGradient849"
       xlink:href="#linearGradient847" />
  </defs>
  <metadata
     id="metadata5">
    <rdf:RDF>
      <cc:Work
         rdf:about="">
        <dc:format>image/svg+xml</dc:format>
        <dc:type
           rdf:resource="http://purl.org/dc/dcmitype/StillImage" />
        <dc:title></dc:title>
      </cc:Work>
    </rdf:RDF>
  </metadata>
  <g
     transform="translate(0,-191.16665)"
     id="layer1">
    <path
       id="path826"
       transform="translate(0,191.16665)"
       d="M 187.88867 17.152344 L 187.88867 57.306641 L 116.41992 57.306641 L 116.41992 81.802734 L 49.244141 81.802734 L 49.244141 87.357422 L 25.253906 87.357422 L 25.253906 129.53125 L 48.740234 129.53125 L 48.740234 146.70508 L 79.802734 146.70508 L 79.802734 192.91797 L 77.277344 192.91797 L 77.277344 248.98242 L 118.43945 248.98242 L 118.43945 341.91602 L 143.18945 341.91602 L 143.18945 384.12891 L 143.94727 384.08984 L 160.61328 384.08984 L 168.94727 373.48438 L 168.94727 370.95898 L 183.3418 370.95898 L 183.3418 331.5625 L 245.97266 331.5625 L 245.97266 324.23828 L 269.45898 324.23828 L 269.45898 295.19727 L 263.39648 295.19727 L 263.39648 279.53906 L 297.49023 279.53906 L 297.49023 203.01953 L 343.95703 203.01953 L 343.95703 196.20117 L 350.77539 196.20117 L 350.77539 201.75781 L 369.46289 201.75781 L 369.46289 184.33203 L 337.13867 184.33203 L 337.13867 171.70508 L 357.3418 171.70508 L 357.3418 91.146484 L 299.00586 91.146484 L 299.00586 57.306641 L 257.8418 57.306641 L 257.8418 52.255859 L 239.40625 52.255859 L 239.40625 17.152344 L 187.88867 17.152344 z M 258.03125 72.269531 L 284.80078 72.269531 L 284.80078 91.525391 L 265.41797 91.525391 L 265.29102 107.11914 L 258.03125 107.11914 L 258.03125 72.269531 z M 146.85156 72.394531 L 157.39453 72.394531 L 157.39453 81.359375 L 188.07812 81.359375 L 188.07812 106.67773 L 182.14258 106.67773 L 182.14258 104.53125 L 150.38672 104.53125 L 150.38672 98.027344 L 136.62305 98.027344 L 136.62305 81.738281 L 146.85156 81.738281 L 146.85156 72.394531 z M 227.85156 81.169922 L 239.6582 81.169922 L 239.6582 122.27148 L 262.07227 122.27148 L 262.07227 146.32617 L 245.59375 146.32617 L 245.59375 169.36914 L 251.52734 169.36914 L 251.55078 174.04102 L 213.77344 174.04102 L 213.77344 149.04102 L 202.47266 149.04102 L 202.47266 133.57227 L 216.42578 133.57227 C 216.42578 133.57227 216.37418 112.86633 216.42578 112.67383 C 216.47736 112.48134 205.06055 112.67383 205.06055 112.67383 L 199.94727 107.56055 L 199.94727 103.33008 L 205.37695 97.900391 L 227.85156 97.900391 L 227.85156 81.169922 z M 282.7168 106.67773 L 301.08789 106.67773 L 301.08789 143.54688 L 294.45898 143.67383 L 294.45898 146.13672 L 288.58789 146.13672 L 288.58789 125.23828 L 282.7168 117.2207 L 282.7168 106.67773 z M 182.32227 129.82227 L 182.32227 149.10742 L 168.39258 149.10742 L 168.39258 193.75 L 138.39258 193.75 L 138.39258 201.16016 L 123.03516 201.16016 L 123.125 192.67773 L 97.857422 192.67773 L 97.857422 168.92773 L 113.03516 168.92773 L 113.03516 177.32227 L 144.28516 177.32227 L 144.28516 146.60742 L 141.42773 146.60742 L 141.42773 135.17773 L 150.71484 135.17773 L 150.71484 139.375 L 172.76758 139.375 L 182.32227 129.82227 z M 260.35742 169.19727 L 294.28516 169.19727 L 294.28516 172.05273 L 321.78516 172.05273 L 321.78516 184.55273 L 289.10742 184.82227 L 289.10742 176.78516 L 272.85742 176.78516 L 272.85742 202.67773 L 268.03516 202.67773 L 268.03516 253.75 L 230.26758 253.75 L 230.26758 188.75 L 242.94727 188.75 L 242.94727 197.05273 L 265.98242 197.05273 L 265.98242 174.10742 L 260.35742 174.10742 L 260.35742 169.19727 z M 136.60742 213.39258 L 146.42773 213.39258 L 146.42773 224.82227 L 168.21484 224.82227 L 168.21484 226.78516 L 198.75 226.78516 L 204.46484 232.5 L 204.46484 273.39258 L 248.92773 273.39258 L 248.92773 295.17773 L 205.53516 295.17773 L 205.17773 295.22266 L 205.17773 284.10742 L 174.28516 284.10742 L 174.28516 286.96484 L 136.60742 286.96484 L 136.60742 213.39258 z "
       style="fill:url(#linearGradient849);stroke:#ff4655;stroke-width:2;stroke-linecap:butt;stroke-linejoin:miter;stroke-opacity:1;stroke-miterlimit:4;stroke-dasharray:none;fill-opacity:1" />
  </g>
</svg>
