<?xml version="1.0" encoding="UTF-8" standalone="no"?>
<svg
   xmlns:dc="http://purl.org/dc/elements/1.1/"
   xmlns:cc="http://creativecommons.org/ns#"
   xmlns:rdf="http://www.w3.org/1999/02/22-rdf-syntax-ns#"
   xmlns:svg="http://www.w3.org/2000/svg"
   xmlns="http://www.w3.org/2000/svg"
   xmlns:xlink="http://www.w3.org/1999/xlink"
   id="svg8"
   version="1.1"
   viewBox="0 0 400 400"
   height="400"
   width="400">
  <defs
     id="defs2">
    <linearGradient
       id="linearGradient899">
      <stop
         id="stop895"
         offset="0"
         style="stop-color:#ff4655;stop-opacity:0.08888889" />
      <stop
         id="stop897"
         offset="1"
         style="stop-color:#ff4655;stop-opacity:0.58666664" />
    </linearGradient>
    <linearGradient
       gradientUnits="userSpaceOnUse"
       y2="0.63585204"
       x2="204.49556"
       y1="399.44406"
       x1="204.49556"
       id="linearGradient901"
       xlink:href="#linearGradient899" />
  </defs>
  <metadata
     id="metadata5">
    <rdf:RDF>
      <cc:Work
         rdf:about="">
        <dc:format>image/svg+xml</dc:format>
        <dc:type
           rdf:resource="http://purl.org/dc/dcmitype/StillImage" />
        <dc:title></dc:title>
      </cc:Work>
    </rdf:RDF>
  </metadata>
  <g
     transform="translate(0,-191.16665)"
     id="layer1">
    <path
       id="path862"
       transform="translate(0,191.16665)"
       d="m 181.95312,27.884766 -5.55468,6.060546 -3.41016,19.19336 -0.63086,13.890625 v 3.660156 H 72.226562 V 97.837891 H 47.224609 v 34.345699 h 23.107422 v 20.32813 h 11.238281 v 3.53711 h -5.68164 v 3.15625 h -31.0625 v 21.84375 h 13.384766 v 63.38672 l 24.30664,24.30859 h 85.671872 l 1.13672,16.47656 21.84571,41.92188 14.14257,14.14258 -2.77929,6.5664 7.32422,15.27735 12.24804,10.48047 h 16.54102 l 2.27344,-4.67188 3.4082,-0.50391 0.2539,-13.00586 9.72266,-18.68945 7.07031,-4.92383 11.86914,-14.52148 19.69727,-18.6875 v -46.21485 h 36.49219 v -4.54492 h 1.76757 v 6.1875 h 17.67774 l 5.93555,-6.5664 v -9.84961 l -6.31446,-5.55469 h -17.67773 v 7.07031 h -1.26172 v -8.45898 h 10.79492 v -34.21875 h -13.32031 v -2.9043 h 5.55469 v -13.76367 h 11.74414 v -18.43555 h -44.44727 v -3.66211 h 15.65821 v -21.46484 h -9.47071 v -10.48047 h 9.34375 v -23.61328 h -3.15625 l -8.71289,-7.701172 v -5.556641 h 6.69141 V 72.458984 H 222.48633 V 50.361328 l -5.55664,-15.910156 -14.26758,-2.273438 -4.54688,-4.292968 z m 8.25782,39.421875 h 15.91015 l 14.84961,20.240234 h 8.3086 v 25.898435 h 15.11523 v 2.03321 h 6.98242 v 3.26953 h -10.60742 v 6.89453 h -5.12695 v -6.80664 h -18.51563 v 32.43945 h 11.17969 v 19.26758 h -8.08789 v 19.0918 h 10.74023 v 8 h -40.70312 v 31.82031 h -35.79688 -0.14648 v -5.64258 h 6.375 v -43.75 h 2.0625 v 4.875 h 19.125 L 188,180.5625 V 167.625 l -7.0625,-4.9043 h -18.21484 v 5.17188 h -1.85547 v -5.21485 h -17.85547 v 6.27539 h -18.03125 v -26.60546 h 1.5918 v -21.47852 h 10.25195 v -18.47266 h -6.18555 V 88.960938 h -2.0332 v -1.94336 h 43.66406 z M 274.1875,84.4375 h 3.625 V 89.25 h 15.875 v 5.25 l -9,7.5 H 275.375 V 93.625 H 255.25 l -10.9375,10.9375 h -4.125 V 87.75 h 34 z M 80.566406,86.574219 h 39.509764 v 2.519531 l -36.95117,0.05469 0.04883,33.17968 -20.595703,-0.0449 V 112.16406 H 80.566406 Z M 248.45898,124.84766 h 4.19922 v 11.49023 h -26.38476 v -2.47461 -0.0898 h 22.18554 z M 103.5625,142.25 H 106.5 v 22 h 4.9375 v 9.125 H 106.25 v 20.3125 h 18.875 V 177.375 h 13 l -3.875,6.25 V 202.25 H 121.4375 V 212 h -46.125 l -0.125,-0.002 v -31.0605 h 1.125 V 170.375 l 4.5,9.5 h 14.625 L 100.25,174.5 v -18.625 h -6.9375 v -3.1875 h 2.125 z m 170.0625,8.36914 h 15.6582 v 7.07031 h 2.65039 v 3.66211 h -3.78711 v 11.11133 h 28.28321 v 20.96094 h 4.16797 v 2.77734 h -3.91407 v 20.70899 h -13.51171 v 15.40234 l -0.0117,0.002 h -35.0918 v -4.79883 h 8.33398 v -28.6621 h -14.51953 v 4.67187 h -16.16406 v -33.20898 l 8.46094,-3.28321 H 273.625 Z m -65.28125,64.64844 h 44.95117 v 37.6289 h 13.76367 v 21.71875 h -14.26757 l -6.81836,2.01954 -0.25391,2.27343 -8.71094,4.67188 -1.51562,-1.51563 -8.96485,3.78907 -5.55664,-0.75782 -2.52539,-3.03125 -7.32422,-0.25195 -3.53515,-2.9043 -5.8086,-1.26367 -6.1875,-2.9043 v -26.13671 l -11.99414,0.25195 v 5.30469 h -7.70312 v -14.14258 h 27.27344 v -18.6875 z m -101.04102,8.57422 h 28.28516 v 16.4414 h 30.31641 v 14.31836 h -4.33008 v -2.0332 h -16.5293 v 1.85547 h -32.17383 v -12.10938 h -5.56836 z m 78.56446,58.60156 7.07226,0.12695 23.99024,12.5 2.77929,-2.65234 13.50977,1.39062 4.41992,-2.02148 h 4.29297 l 8.33398,-6.43945 8.8379,-1.51563 5.30468,2.27344 4.29297,7.19726 -5.17773,9.47071 -7.70313,10.73242 -9.46875,8.45898 v 4.29493 l -9.34375,9.08984 -3.2832,5.30469 -4.29297,1.76758 -15.6582,-9.0918 -5.55664,-11.23828 -19.44532,-21.08594 z"
       style="fill:url(#linearGradient901);fill-opacity:1;stroke:#ff4655;stroke-width:2;stroke-linecap:butt;stroke-linejoin:miter;stroke-miterlimit:4;stroke-dasharray:none;stroke-opacity:1" />
  </g>
</svg>
