<?xml version="1.0" encoding="UTF-8" standalone="no"?>
<svg
   xmlns:dc="http://purl.org/dc/elements/1.1/"
   xmlns:cc="http://creativecommons.org/ns#"
   xmlns:rdf="http://www.w3.org/1999/02/22-rdf-syntax-ns#"
   xmlns:svg="http://www.w3.org/2000/svg"
   xmlns="http://www.w3.org/2000/svg"
   xmlns:xlink="http://www.w3.org/1999/xlink"
   xmlns:sodipodi="http://sodipodi.sourceforge.net/DTD/sodipodi-0.dtd"
   xmlns:inkscape="http://www.inkscape.org/namespaces/inkscape"
   id="svg8"
   version="1.1"
   viewBox="0 0 200 400"
   height="400"
   width="200"
   sodipodi:docname="breach.svg"
   inkscape:version="0.92.4 (5da689c313, 2019-01-14)">
  <sodipodi:namedview
     pagecolor="#ffffff"
     bordercolor="#666666"
     borderopacity="1"
     objecttolerance="10"
     gridtolerance="10"
     guidetolerance="10"
     inkscape:pageopacity="0"
     inkscape:pageshadow="2"
     inkscape:window-width="2560"
     inkscape:window-height="1377"
     id="namedview874"
     showgrid="false"
     inkscape:zoom="1.668772"
     inkscape:cx="-63.374235"
     inkscape:cy="259.90774"
     inkscape:window-x="-8"
     inkscape:window-y="-8"
     inkscape:window-maximized="1"
     inkscape:current-layer="svg8" />
  <defs
     id="defs2">
    <linearGradient
       id="linearGradient1431">
      <stop
         style="stop-color:#ff4655;stop-opacity:0"
         offset="0"
         id="stop1427" />
      <stop
         style="stop-color:#ff4655;stop-opacity:0.58666664"
         offset="1"
         id="stop1429" />
    </linearGradient>
    <linearGradient
       id="linearGradient835">
      <stop
         id="stop831"
         offset="0"
         style="stop-color:#ff4655;stop-opacity:0.3137255" />
      <stop
         id="stop833"
         offset="1"
         style="stop-color:#ff5546;stop-opacity:0.31555554" />
    </linearGradient>
    <linearGradient
       gradientUnits="userSpaceOnUse"
       y2="191.16666"
       x2="97.635826"
       y1="591.88092"
       x1="97.635826"
       id="linearGradient837"
       xlink:href="#linearGradient835" />
    <linearGradient
       inkscape:collect="always"
       xlink:href="#linearGradient1431"
       id="linearGradient1425"
       x1="106.39288"
       y1="590.11536"
       x2="106.39288"
       y2="191.01949"
       gradientUnits="userSpaceOnUse" />
  </defs>
  <metadata
     id="metadata5">
    <rdf:RDF>
      <cc:Work
         rdf:about="">
        <dc:format>image/svg+xml</dc:format>
        <dc:type
           rdf:resource="http://purl.org/dc/dcmitype/StillImage" />
        <dc:title></dc:title>
      </cc:Work>
    </rdf:RDF>
  </metadata>
  <g
     transform="translate(0,-191.16665)"
     id="layer1"
     style="fill:url(#linearGradient1425);fill-opacity:1;stroke:#ff4655;stroke-opacity:0.91555554;stroke-width:2;stroke-miterlimit:4;stroke-dasharray:none">
    <path
       id="path826"
       d="m 91.544354,224.10844 c -7.39335,0.15075 -15.03907,4.56268 -15.03907,12.88282 l 0.63282,7.19726 -20.70899,14.52149 -4.79883,0.12695 2.52539,-2.9043 c -2.82712,-1.84296 -5.77266,-1.41913 -8.83789,1.26172 l -4.16797,4.54688 c -8.4923,-2.54115 -16.10689,-3.17279 -20.58203,3.02929 l -2.90429,4.16797 c -2.75463,4.60031 -1.70607,6.66581 0.50586,7.95508 l 4.41992,1.89258 -4.29297,1.51562 c -3.19374,3.01732 -1.27214,5.5238 0.125,8.08203 1.86238,3.24754 0.61885,4.51892 0,6.1875 -1.57717,3.32962 -1.04668,6.41624 1.92578,14.83985 4.33002,11.84902 5.106,13.60732 13.10156,18 6.0308,3.31326 17.31717,0.97351 16.41407,-7.08203 l 5.30273,-3.03125 7.95508,4.79882 c -0.63747,8.92316 -2.51299,16.29194 5.93554,15.99024 l -2.52539,6.61133 h -2.27343 v 3.91601 h -3.15625 v 13.50977 l -3.28321,6.5664 c -10.32338,-0.13531 -8.96484,4.13227 -8.96484,14.01563 v 23.48633 l 5.68164,5.68164 c 0.27631,11.03433 0.37683,21.98609 5.05078,35.10351 -1.81623,6.43093 -0.43027,12.74662 4.41992,18.93946 -1.76325,3.73363 -2.11253,8.79043 2.14649,12.375 1.96037,11.68328 2.08577,22.26343 0,31.5664 -4.26207,7.75623 -8.04462,9.66612 -11.9961,13.63867 h -4.67187 c -4.22764,0.0389 -10.2451,4.37426 -9.84766,14.01563 -3.43946,0.85883 -2.68808,4.51899 0,5.42969 6.68394,2.77198 14.56077,2.94127 23.86328,0 l 23.99219,-7.57618 c 3.89289,-1.26284 3.23731,-4.346 0,-8.46093 v -9.97461 c -2.38171,-8.24553 -1.08153,-12.07247 0,-16.16211 l 9.84766,-28.66406 -5.17578,-21.46485 V 404.2979 l 23.107416,50.25585 2.01953,5.55469 c -1.60892,6.96689 0.64976,14.28647 1.38867,21.4668 7.59185,9.98503 11.26247,21.73453 14.14258,33.83984 0.7591,7.39125 0.9212,14.66356 0,21.71875 l -4.16602,13.88868 c -1.05122,6.77985 9.83226,7.19726 15.15234,7.19726 6.96712,0.16877 15.59414,-2.10388 14.58399,-8.52344 -1.15552,-6.31152 -9.00368,-25.84789 -8.52344,-43.24609 l 2.9043,-32.07227 -10.73438,-27.02148 3.53711,-4.79883 -5.42968,-14.01562 -3.91407,-18.94141 c 2.79343,-2.5746 6.37739,-4.39134 3.91407,-11.99414 l -4.0254,-13.24414 c -1.97388,-7.37512 3.42693,-21.02284 -13.77929,-16.42969 l -0.12696,-2.01953 c 4.05035,-0.28028 5.73448,0.39955 5.40039,-8.20898 -0.17909,-7.702 0.37051,-12.6507 -9.69335,-9.84766 l -0.88282,-4.29297 -1.89453,-0.12695 v -3.15625 c 3.98123,0.27994 7.67272,-0.7493 8.83985,-13.13281 h 2.39843 v -8.33399 c 1.5362,-3.45832 2.81146,-7.17644 3.16602,-11.81641 4.79824,5.53968 7.35573,12.06008 19.31055,14.46875 -2.72097,10.41839 -1.25166,15.7203 2.53906,21.3086 l 0.17969,9.7539 c -1.2368,2.80386 -1.62231,5.32431 0.68945,6.94532 -10.24444,5.65625 -10.32326,12.56872 -2.75391,18.25586 10.34888,7.18765 21.48875,7.20207 24.34571,-3.10547 v -2.14649 h -2.27149 c 1.89762,-2.61906 2.9405,-5.16964 1.83008,-9.62695 2.50771,-1.06876 5.29424,-1.82223 5.36719,-5.65039 v -7.95508 c 2.82579,-0.94176 4.80246,-3.31309 5.20703,-11.01758 -0.4297,-12.52524 -3.38715,-28.18606 -15.6875,-29.13672 l -3.42188,-5.92578 c -0.0722,-10.8158 -3.0552,-18.76045 -9.18359,-23.12109 l -4.69336,1.77344 v -6.69336 l -4.41992,-5.05078 c -0.0463,-6.90363 -4.84576,-8.97704 -13.45899,-8.26563 -3.11656,-3.18592 -5.85699,-6.87212 -13.81445,-3.60351 l -9.84961,-15.15235 9.4707,-7.19726 -6.31445,-8.58594 -2.27344,1.38867 -3.4082,-3.15625 -4.0625,3.01563 c -2.54838,-3.05494 -6.894066,-4.49865 -11.330066,-4.40821 z m -28.04493,49.375 c -2.20705,2.32316 -4.2262,4.67029 -3.78711,7.32422 l -4.67187,0.25195 c -11.03334,6.70791 -14.4545,11.30054 -13.38477,14.64649 l -5.05078,-10.98438 c 3.7541,-0.85309 6.43065,-3.39872 7.82813,-7.95507 h 8.20703 c 1.99895,-2.02973 5.52203,-3.18018 10.85937,-3.28321 z"
       style="fill:url(#linearGradient1425);fill-opacity:1;stroke:#ff4655;stroke-width:2;stroke-linecap:butt;stroke-linejoin:miter;stroke-miterlimit:4;stroke-dasharray:none;stroke-opacity:0.91555554" />
  </g>
</svg>
