<?xml version="1.0" encoding="UTF-8" standalone="no"?>
<svg
   xmlns:dc="http://purl.org/dc/elements/1.1/"
   xmlns:cc="http://creativecommons.org/ns#"
   xmlns:rdf="http://www.w3.org/1999/02/22-rdf-syntax-ns#"
   xmlns:svg="http://www.w3.org/2000/svg"
   xmlns="http://www.w3.org/2000/svg"
   xmlns:xlink="http://www.w3.org/1999/xlink"
   id="svg8"
   version="1.1"
   viewBox="0 0 200 400"
   height="400"
   width="200">
  <defs
     id="defs2">
    <linearGradient
       id="linearGradient856">
      <stop
         id="stop852"
         offset="0"
         style="stop-color:#ff4655;stop-opacity:0.58222222" />
      <stop
         id="stop854"
         offset="1"
         style="stop-color:#ff4655;stop-opacity:0" />
    </linearGradient>
    <linearGradient
       gradientTransform="translate(4.5707612,-2.8150343)"
       gradientUnits="userSpaceOnUse"
       y2="594.33875"
       x2="120.5536"
       y1="193.9816"
       x1="120.5536"
       id="linearGradient858"
       xlink:href="#linearGradient856" />
  </defs>
  <metadata
     id="metadata5">
    <rdf:RDF>
      <cc:Work
         rdf:about="">
        <dc:format>image/svg+xml</dc:format>
        <dc:type
           rdf:resource="http://purl.org/dc/dcmitype/StillImage" />
        <dc:title></dc:title>
      </cc:Work>
    </rdf:RDF>
  </metadata>
  <g
     transform="translate(0,-191.16665)"
     id="layer1">
    <path
       id="path850"
       d="m 114.04537,210.68169 c -18.416809,0.14626 -19.596369,19.44999 -19.445309,24.17969 l -18.18164,4.92383 2.58789,-2.14649 c 2.5267,-1.56511 -0.33368,-5.75845 -3.91407,-3.47265 l -2.20898,1.95703 -8.27148,0.94726 c -0.40733,-3.09887 -2.14022,-3.39973 -4.04102,-3.3457 -0.42699,-1.54339 -0.84568,-3.09131 -3.4082,-3.15625 -0.36017,-2.00618 -2.04468,-3.2583 -3.78907,-1.95703 -3.27146,2.86875 -14.66536,5.9147 -10.98437,11.67969 -1.98803,2.83938 -3.8358,5.76281 -4.16797,9.5957 l -4.48242,5.87305 1.95703,1.64062 c -4.94699,9.27946 -11.25135,18.0563 -11.93164,28.91602 -0.50438,9.28509 5.06079,19.53003 14.14258,16.66796 13.45898,-3.66025 17.08568,-4.46142 22.60156,-4.98828 2.88314,2.47487 5.76529,1.39915 8.64844,0.25195 2.11113,6.93206 1.13256,12.93676 -0.0625,18.87696 h -2.65235 v 5.74609 h -1.51367 v 5.05078 h -3.91601 v 10.60547 h 3.53711 v 1.13672 h 2.08203 v 7.83008 c 0,0 -3.72403,3.78711 -3.97657,3.78711 h -2.90429 c -0.0176,3.87716 0.98405,7.95755 -5.49219,10.54297 l 5.11328,34.78711 3.15625,3.09375 c -5.60332,16.06836 -0.5302,33.43949 0,50.25586 l 3.91406,9.21679 c 2.4e-4,10.48994 -0.10811,20.86757 -3.09375,28.22266 l 3.72657,7.07031 -3.34766,4.60938 4.92578,5.74414 -5.49414,11.11132 v 3.15821 l -7.38672,7.51172 c -8.95958,0.23652 -17.89888,0.49971 -17.74023,13.00586 -4.44854,1.56669 -4.57212,8.01757 0,8.01757 l 25.3164,0.25391 3.03125,-2.9043 h 8.65039 v 3.15625 h 11.17383 c 7.2904,0 11.36524,-0.97881 11.36524,-6.06054 v -11.17578 c -2.87335,-6.85812 -2.95116,-16.1831 -3.03125,-25.50586 2.85215,-1.06344 4.21629,-4.00964 4.54492,-8.26954 2.611839,-12.11319 5.569369,-24.19173 0,-37.12304 -2.3633,-4.66699 -0.84445,-7.19884 0,-10.10156 l 2.714839,-21.27735 c 2.45014,7.41216 3.98218,15.50302 10.10156,20.20313 -1.57242,7.78472 6.91338,16.10447 9.28126,24.36914 1.52792,7.9077 0.56161,15.24051 0,22.66601 l 4.16601,4.92383 -1.70312,5.99805 4.92382,5.24023 -1.45117,3.85156 6.12305,6.43946 c 1.10874,9.70271 3.64423,19.78545 0,28.2207 -5.74307,5.92176 -4.78229,8.19021 -5.36719,11.17578 -2.60741,1.16881 -2.70541,7.30306 -0.0937,8.04883 17.83008,4.02156 27.47536,1.3262 33.05078,-4.64063 v -4.35546 c 2.43949,-0.052 3.17695,-2.94019 1.57813,-9.72266 v -8.27148 l -4.79688,-22.60157 c 0,0 -1.13793,-9.59644 -0.82226,-9.91211 0.31567,-0.31567 3.97851,-5.30273 3.97851,-5.30273 l -3.85156,-5.11328 c 0.005,-7.74921 -0.52865,-15.81822 3.03125,-21.4668 l -9.97656,-15.97265 -3.91406,-14.83594 -0.50586,-10.16602 c -1.85795,-7.84973 -2.31811,-15.6991 -2.33594,-23.54883 0.21796,-11.02895 -1.81433,-27.11213 -5.74414,-35.98632 l 3.4082,-2.65235 c -1.33858,-7.08525 -0.15312,-15.52845 -9.72266,-18.18164 0.0278,-5.40208 0.81832,-11.12085 -5.80859,-13.76367 2.40174,-8.41728 6.99218,-16.28795 12.75391,-23.86523 2.35383,5.10507 4.93445,10.13068 9.5332,14.45703 0.32547,4.22022 0.20233,8.89065 1.45312,12.18554 l 7.07032,22.72852 c -1.15319,0.87831 -2.0827,2.78309 -2.39844,7.51367 -4.71559,2.33719 -9.60435,4.54022 -8.58594,11.30078 -1.10689,2.07801 -0.93282,3.64478 -0.0644,5.30274 7.1512,10.74538 21.36104,10.94137 22.09766,0 0.61216,-3.44764 1.75092,-5.84378 3.03125,-7.95508 v -6.43946 h 3.21875 l 2.8125,-10.49218 v -17.16016 -18.5625 l -2.8125,-8.14453 h -3.09375 c -3.35569,-6.49916 -3.9206,-22.02632 -4.48243,-37.56445 0.0566,-5.67602 -6.25776,-13.28231 -15.65625,-13.44727 l -2.40039,-2.08398 v -3.85156 c -4.72671,-4.49932 -10.01659,-7.87151 -16.91992,-8.01758 l -1.89453,-9.40625 c 4.11659,-1.09806 8.60145,-5.04786 7.83008,-10.79688 -1.26523,-7.44436 -5.37357,-15.5065 -11.11328,-15.46679 -0.35149,-5.04352 -2.19006,-13.01133 -11.67969,-12.81641 z m -53.671879,43.83008 c 0.31703,3.3503 3.77333,5.2669 6.85352,7.52344 -2.63954,0.3317 -5.62168,1.76327 -8.97266,5 -4.97862,-0.91707 -7.23588,2.28789 -10.42382,4.08398 0.16969,-2.73778 0.16093,-5.52865 1.47265,-7.92383 h 3.25781 v -4.95508 c 5.03587,0.26804 6.64995,-1.59041 7.8125,-3.72851 z"
       style="fill:url(#linearGradient858);fill-opacity:1;stroke:#ff4655;stroke-width:2;stroke-linecap:butt;stroke-linejoin:miter;stroke-miterlimit:4;stroke-dasharray:none;stroke-opacity:1" />
  </g>
</svg>
