<?xml version="1.0" encoding="UTF-8" standalone="no"?>
<svg
   xmlns:dc="http://purl.org/dc/elements/1.1/"
   xmlns:cc="http://creativecommons.org/ns#"
   xmlns:rdf="http://www.w3.org/1999/02/22-rdf-syntax-ns#"
   xmlns:svg="http://www.w3.org/2000/svg"
   xmlns="http://www.w3.org/2000/svg"
   xmlns:xlink="http://www.w3.org/1999/xlink"
   width="300"
   height="100"
   viewBox="0 0 300 100"
   version="1.1"
   id="svg8">
  <defs
     id="defs2">
    <linearGradient
       id="linearGradient2031">
      <stop
         id="stop2027"
         offset="0"
         style="stop-color:#ff4655;stop-opacity:0.58823532" />
      <stop
         id="stop2029"
         offset="1"
         style="stop-color:#ff4655;stop-opacity:0;" />
    </linearGradient>
    <linearGradient
       gradientTransform="translate(-1.7034883,0.18488914)"
       gradientUnits="userSpaceOnUse"
       y2="99.80143"
       x2="149.32947"
       y1="-0.37776741"
       x1="149.32947"
       id="linearGradient2033"
       xlink:href="#linearGradient2031" />
  </defs>
  <metadata
     id="metadata5">
    <rdf:RDF>
      <cc:Work
         rdf:about="">
        <dc:format>image/svg+xml</dc:format>
        <dc:type
           rdf:resource="http://purl.org/dc/dcmitype/StillImage" />
        <dc:title></dc:title>
      </cc:Work>
    </rdf:RDF>
  </metadata>
  <path
     id="path2020"
     d="m 131.1344,18.175123 v 2.335938 H 77.53284 l -6.865234,6.9375 1.386718,4.892578 h -9.71289 v -0.875 H 45.546512 c -2.832488,0 -2.65132,7.447266 0,7.447266 H 62.269168 V 38.11067 h 11.730469 c 1.972064,5.616257 3.895051,15.703125 7.228516,15.703125 h 6.609375 v -5.732422 h 41.156252 l 13.94335,26.748047 c 1.05428,2.022633 2.12381,3.046875 3.35547,3.046875 h 21.79297 c 5.92032,0 9.88124,-5.645081 8.62305,-8.107422 l -9.03711,-17.195312 c -3.87867,-2.038288 -3.2014,-8.46875 1.0332,-8.46875 h 15.69727 0.20703 l 5.12891,8.27539 -2.3086,5.22461 1.03907,0.564453 3.16992,-3.955078 1.05859,0.693359 c -1.18632,7.187112 -4.00812,13.460888 -7.52148,19.132813 l 21.27343,7.578125 c 4.18777,-6.413849 6.34169,-14.03144 7.49024,-22.53711 l 2.37695,1.03125 11.87695,-15.697265 h 11.56641 l 4.33789,14.251953 h 8.57227 c 2.37651,0 3.82031,-1.244813 3.82031,-5.576172 V 29.749342 c 0,-2.304745 0.7836,-4.49338 -8.05469,-4.646484 l -65.58203,-1.136719 -9.50195,-3.304688 h -19.82813 v -2.486328 z m -14.0293,5.476563 h 34.45899 c 2.91432,0 2.96478,4.162109 0,4.162109 h -32.04102 c -0.29211,0 -2.1914,-3.796875 -2.1914,-3.796875 z m 29.18946,23.089844 c 4.16642,3.7369 2.22758,5.761469 0.91211,7.447265 2.06131,-0.963947 4.09295,-1.945174 2.76953,-7.277344 h 1.42383 c 2.99439,3.248374 1.31903,5.89542 -0.16211,8.087891 2.95299,0.08065 5.14877,1.267259 5.60351,3.742188 l 5.6582,10.662109 c 1.3568,2.55602 0.68939,4.271484 -1.42382,4.271484 H 147.96839 L 135.33362,50.964186 c -1.04869,-1.885225 -0.67825,-3.968118 1.57031,-4.017578 z"
     style="fill:url(#linearGradient2033);fill-opacity:1;stroke:#ff4655;stroke-width:2;stroke-linecap:butt;stroke-linejoin:miter;stroke-miterlimit:4;stroke-dasharray:none;stroke-opacity:1" />
</svg>
