<?xml version="1.0" encoding="UTF-8" standalone="no"?>
<svg
   xmlns:dc="http://purl.org/dc/elements/1.1/"
   xmlns:cc="http://creativecommons.org/ns#"
   xmlns:rdf="http://www.w3.org/1999/02/22-rdf-syntax-ns#"
   xmlns:svg="http://www.w3.org/2000/svg"
   xmlns="http://www.w3.org/2000/svg"
   xmlns:xlink="http://www.w3.org/1999/xlink"
   id="svg8"
   version="1.1"
   viewBox="0 0 300 100"
   height="100"
   width="300">
  <defs
     id="defs2">
    <linearGradient
       id="linearGradient1025">
      <stop
         id="stop1021"
         offset="0"
         style="stop-color:#ff4655;stop-opacity:0" />
      <stop
         id="stop1023"
         offset="1"
         style="stop-color:#ff4655;stop-opacity:0.58666664" />
    </linearGradient>
    <linearGradient
       gradientTransform="translate(4.0637368,492.53007)"
       gradientUnits="userSpaceOnUse"
       y2="-0.26521924"
       x2="152.19206"
       y1="99.752037"
       x1="152.19206"
       id="linearGradient1027"
       xlink:href="#linearGradient1025" />
  </defs>
  <metadata
     id="metadata5">
    <rdf:RDF>
      <cc:Work
         rdf:about="">
        <dc:format>image/svg+xml</dc:format>
        <dc:type
           rdf:resource="http://purl.org/dc/dcmitype/StillImage" />
        <dc:title></dc:title>
      </cc:Work>
    </rdf:RDF>
  </metadata>
  <g
     transform="translate(0,-491.16665)"
     id="layer1">
    <path
       id="path1016"
       d="m 105.52272,505.2996 -1.56445,1.56641 h -3.69922 c -2.826998,7.22641 -2.000253,11.84879 0,17.64453 1.18513,3.43391 2.7621,5.86067 5.97657,5.97656 l 23.33593,0.28516 c 6.33436,0.016 8.35471,2.25009 9.25,5.26562 3.80841,12.82755 14.84257,7.63314 30.87891,9.24805 5.15219,7.71317 10.13625,17.54564 6.11914,26.61133 l 3.98437,4.98047 c 0,0 13.13181,-5.60086 19.63672,-8.53907 3.06587,-1.38483 2.34482,-7.52581 0.57032,-11.09961 -3.50001,-7.04894 -9.57991,-19.22767 -10.67383,-21.06054 -1.49736,-2.50883 -1.91655,-4.9229 0,-6.40235 l 8.11133,-6.26172 c -3.41728,-6.06335 -10.28648,-15.44479 -13.0918,-17.07617 h -28.0332 v 1.28125 h -14.3711 v -1.28125 H 113.3489 Z m 41.89844,23.77344 c 1.87457,-0.0361 4.14926,0.13773 6.76953,0.27539 1.86087,0.0978 3.91685,9.31702 -1.92187,9.17969 -1.13379,-0.0267 -1.45097,1.38166 -0.0703,1.35156 2.81018,-0.0612 5.36974,-0.85259 5.47851,-5.97656 0.0842,-3.96824 -0.39923,-4.28976 1.99219,-4.05664 3.59664,0.35061 5.03029,3.21539 5.26367,6.75976 0.40336,6.12573 -8.51473,5.64167 -13.16211,5.54883 -4.32563,-0.0864 -8.86146,-0.69709 -10.38867,-7.18555 -1.08389,-4.60497 1.91502,-5.81706 6.03906,-5.89648 z"
       style="fill:url(#linearGradient1027);fill-opacity:1;stroke:#ff4655;stroke-width:2;stroke-linecap:butt;stroke-linejoin:miter;stroke-miterlimit:4;stroke-dasharray:none;stroke-opacity:1" />
  </g>
</svg>
