<?xml version="1.0" encoding="UTF-8" standalone="no"?>
<svg
   xmlns:dc="http://purl.org/dc/elements/1.1/"
   xmlns:cc="http://creativecommons.org/ns#"
   xmlns:rdf="http://www.w3.org/1999/02/22-rdf-syntax-ns#"
   xmlns:svg="http://www.w3.org/2000/svg"
   xmlns="http://www.w3.org/2000/svg"
   xmlns:xlink="http://www.w3.org/1999/xlink"
   id="svg8"
   version="1.1"
   viewBox="0 0 200 400"
   height="400"
   width="200">
  <defs
     id="defs2">
    <linearGradient
       id="linearGradient1450">
      <stop
         id="stop1446"
         offset="0"
         style="stop-color:#ff4655;stop-opacity:0.09777778" />
      <stop
         id="stop1448"
         offset="1"
         style="stop-color:#ff4655;stop-opacity:0.58666664" />
    </linearGradient>
    <linearGradient
       gradientTransform="translate(-7.8223015,-0.42396679)"
       gradientUnits="userSpaceOnUse"
       y2="191.5804"
       x2="106.88065"
       y1="591.09576"
       x1="106.88065"
       id="linearGradient1452"
       xlink:href="#linearGradient1450" />
  </defs>
  <metadata
     id="metadata5">
    <rdf:RDF>
      <cc:Work
         rdf:about="">
        <dc:format>image/svg+xml</dc:format>
        <dc:type
           rdf:resource="http://purl.org/dc/dcmitype/StillImage" />
        <dc:title></dc:title>
      </cc:Work>
    </rdf:RDF>
  </metadata>
  <g
     transform="translate(0,-191.16665)"
     id="layer1">
    <path
       id="path1444"
       d="m 108.68707,540.90787 c -3.20768,3.14484 0.18064,5.78228 6.97861,5.56667 9.93863,4.70006 20.42305,7.20972 28.09804,7.0819 6.97007,-0.40816 7.72672,-2.74715 6.03793,-4.5145 l -7.6163,-5.27135 -10.29093,-7.70242 c -0.57631,-1.94449 -2.31408,-4.08255 -5.74524,-6.50285 -2.2584,-12.18675 -1.24931,-20.01685 0,-27.52666 l 2.39911,-19.0035 c 1.56362,-2.81825 2.99767,-5.72846 0.94702,-11.11167 l 3.91434,-4.86136 -2.33597,-6.9448 c 3.97945,-2.39047 7.87042,-11.17026 8.7757,-17.74081 l -1.70464,-10.9854 3.21986,-3.03046 -4.10374,-34.09265 3.53553,-8.7757 c 4.24149,3.86452 8.67264,15.94744 12.69004,10.10152 1.90515,2.89435 3.75545,3.75934 5.49271,0.44195 3.44478,3.17273 7.33294,5.22536 9.18608,2.0203 0.80366,-2.25282 -1.64867,-3.04922 -3.88278,-2.74635 l -3.03046,-3.69337 c -1.29946,-1.73735 0.81476,-3.34355 2.39911,-2.20971 l 6.78697,4.64039 c 1.98877,1.3999 5.22696,-1.16173 2.05187,-3.31456 -4.60001,-2.69032 -8.61299,-6.5547 -12.37437,-10.92228 -2.32275,-2.78874 -3.31917,-5.5006 0.12627,-7.95495 1.66069,-0.0574 2.8589,0.74164 4.32472,1.29425 1.92093,0.8883 3.77192,-1.85852 2.87261,-3.34613 -3.44538,-0.32092 -3.77886,-3.05632 -6.81852,-2.115 -1.95616,0.73429 -4.12756,1.0425 -6.50286,0.94702 l -4.10374,-3.91434 c 0.24621,-4.33279 -2.09816,-7.66277 -7.07107,-9.97526 l 2.46224,-2.84105 -8.20748,-9.09138 1.13642,-2.52538 c -5.98953,-2.31062 -6.54288,-7.38917 -7.51301,-13.32138 l -2.27285,-10.66974 5.80838,-2.05187 c -1.86303,-2.81925 -0.38387,-4.70634 1.98874,-5.93465 -2.32978,-3.36854 0.43958,-3.97566 1.38896,-6.12404 -0.26795,-1.18408 -0.6908,-2.47114 -3.63024,-2.9989 2.31858,-2.59826 1.05901,-4.60959 -3.21986,-6.02934 l 18.68782,-18.65626 -2.2097,-7.38674 10.85913,-9.91212 -6.31345,-7.00794 -4.16688,3.66181 v 3.15672 l -18.62469,16.41498 -2.2097,0.0631 -4.79823,4.54569 -3.85121,-3.59867 c 0.70481,-2.05776 0.52336,-3.69866 -0.28414,-6.09249 1.93159,-5.75003 -2.14696,-5.81437 -5.71368,-8.30218 2.31367,-2.67068 4.37069,-5.61218 5.61898,-9.40705 0,0 5.80837,4.92449 5.74524,4.67196 -0.0631,-0.25254 9.21764,-6.88167 9.21764,-6.88167 l -11.55362,-6.25032 c 0.55672,-3.33561 -0.64846,-8.28631 -2.08344,-13.44765 l -18.81409,-3.91434 c 1.18631,-2.06004 2.01167,-4.3822 3.03046,-6.9448 l -1.95717,-0.82075 c -2.388412,5.41602 -4.643652,10.9857 -9.154512,13.95273 l -16.28871,-2.33598 16.03618,6.43972 c 1.17662,-0.13792 1.16962,18.04958 -1.13642,18.11962 l -5.1139,-0.88389 -4.60882,9.78585 c -14.53976,4.30007 -29.90972,8.35332 -27.33726,17.74081 l 10.4172,28.72622 2.52538,21.65514 c 0.68181,7.22432 5.32622,9.29141 12.42667,8.4294 l -0.17857,9.72534 c -10.63917,-0.4805 -10.72158,-0.84228 -13.82646,15.30656 l -5.42957,17.29887 7.51301,3.15672 -4.54569,10.73287 h 3.34613 c -14.34719,27.94957 -29.53687,59.85883 -39.33281,66.41753 l 7.82868,15.15229 c 6.89658,-10.20409 13.75016,-20.53717 21.33947,-28.66308 v 12.2481 l -2.52538,4.79823 -6.06091,5.68211 1.26269,2.27284 c -5.36538,9.51161 -8.54905,19.47775 -8.20749,30.17831 v 12.2481 c -0.0389,5.70699 -0.6583,10.56466 -4.67196,16.92005 -0.66207,11.07388 -5.73042,19.31517 -9.47018,28.41054 3.125,6.81998 20.96217,6.76369 24.13906,-0.60201 -1.01791,-1.94542 -0.76672,-4.22493 0.35714,-7.47921 v -18.05647 l 0.37881,-6.9448 c 4.22744,-4.34014 3.93146,-8.88588 4.67195,-13.38452 l 10.48034,-20.07679 2.65165,-12.50063 4.79822,-4.04061 c -1.138,-10.26709 2.29274,-16.55836 6.31346,-19.95052 -0.64935,4.52764 -1.30002,9.08105 -3.59867,14.26841 l 2.96732,2.77792 c 8.88615,-7.43258 19.11859,-12.57646 29.673232,-17.1726 -1.73166,3.5666 -5.25391,6.98399 -3.283,10.85914 -1.57768,9.71494 -2.36239,22.52278 0,28.28427 4.56139,10.87003 4.15609,19.6292 2.02031,27.65293 -1.07776,2.79025 -1.43671,5.62842 0,8.5863 1.82155,3.06278 1.10871,5.5407 0.84694,8.12272 z"
       style="fill:url(#linearGradient1452);fill-opacity:1;stroke:#ff4655;stroke-width:2;stroke-linecap:butt;stroke-linejoin:miter;stroke-miterlimit:4;stroke-dasharray:none;stroke-opacity:1" />
  </g>
</svg>
