<?xml version="1.0" encoding="UTF-8" standalone="no"?>
<svg
   xmlns:dc="http://purl.org/dc/elements/1.1/"
   xmlns:cc="http://creativecommons.org/ns#"
   xmlns:rdf="http://www.w3.org/1999/02/22-rdf-syntax-ns#"
   xmlns:svg="http://www.w3.org/2000/svg"
   xmlns="http://www.w3.org/2000/svg"
   xmlns:xlink="http://www.w3.org/1999/xlink"
   id="svg8"
   version="1.1"
   viewBox="0 0 300 100"
   height="100"
   width="300">
  <defs
     id="defs2">
    <linearGradient
       id="linearGradient1053">
      <stop
         id="stop1049"
         offset="0"
         style="stop-color:#ff4655;stop-opacity:0" />
      <stop
         id="stop1051"
         offset="1"
         style="stop-color:#ff4655;stop-opacity:0.58666664" />
    </linearGradient>
    <linearGradient
       gradientTransform="translate(0.41663927,491.73066)"
       gradientUnits="userSpaceOnUse"
       y2="-0.06953337"
       x2="159.83255"
       y1="100.04834"
       x1="159.83255"
       id="linearGradient1055"
       xlink:href="#linearGradient1053" />
  </defs>
  <metadata
     id="metadata5">
    <rdf:RDF>
      <cc:Work
         rdf:about="">
        <dc:format>image/svg+xml</dc:format>
        <dc:type
           rdf:resource="http://purl.org/dc/dcmitype/StillImage" />
        <dc:title></dc:title>
      </cc:Work>
    </rdf:RDF>
  </metadata>
  <g
     transform="translate(0,-491.16665)"
     id="layer1">
    <path
       id="path1042"
       d="m 193.55922,500.46699 -6.13867,2.46484 h -67.84571 l -1.84961,1.56836 v -3.18359 h -7.09765 v 7.91601 h -2.38282 V 508.5041 H 97.375623 c -2.775649,0 -0.782389,6.06445 0.623047,6.06445 h 11.06445 v -0.67578 h 1.68946 v 2.40039 h 3.16601 v 3.3418 l 2.9668,2.96875 h 20.07422 l 22.97461,59.45117 15.22656,-5.83399 -5.55078,-14.23046 29.74219,-10.2461 c 7.82187,-2.55819 4.03909,-10.6375 1.42187,-16.36523 -3.07655,-6.73296 -11.81303,-12.07371 -3.69922,-18.21289 l 4.83789,-3.8418 c -1.55692,-3.1305 -3.84904,-7.54086 -8.35351,-9.33594 z m -31.56055,21.53711 6.40235,0.0351 c 3.70947,0.0206 4.84536,5.91268 1.9746,7.70118 3.82298,0 1.85666,-6.58652 5.24805,-6.63282 1.7513,-0.0239 4.07222,8.67969 -4.37695,8.67969 h -5.72656 c -1.91591,0 -6.88839,-9.8019 -3.52149,-9.7832 z m 15.24024,10.42578 c 2.018,-0.11091 2.85467,0.69145 3.4707,2.38086 l 4.69726,12.8789 c 0.88855,2.4368 0.8379,3.92163 -0.7832,4.55274 l -9.32031,3.6289 c -1.35758,0.52852 -2.2004,1.40218 -3.62891,-2.34765 l -6.26172,-16.43555 c -0.8559,-2.24674 -0.20145,-2.81717 1.35157,-3.06055 l 9.53515,-1.49414 c 0.33928,-0.0532 0.65117,-0.0877 0.93946,-0.10351 z"
       style="fill:url(#linearGradient1055);fill-opacity:1;stroke:#ff4655;stroke-width:2;stroke-linecap:butt;stroke-linejoin:miter;stroke-miterlimit:4;stroke-dasharray:none;stroke-opacity:1" />
  </g>
</svg>
