<?xml version="1.0" encoding="UTF-8" standalone="no"?>
<svg
   xmlns:dc="http://purl.org/dc/elements/1.1/"
   xmlns:cc="http://creativecommons.org/ns#"
   xmlns:rdf="http://www.w3.org/1999/02/22-rdf-syntax-ns#"
   xmlns:svg="http://www.w3.org/2000/svg"
   xmlns="http://www.w3.org/2000/svg"
   xmlns:xlink="http://www.w3.org/1999/xlink"
   id="svg8"
   version="1.1"
   viewBox="0 0 300 100"
   height="100"
   width="300">
  <defs
     id="defs2">
    <linearGradient
       id="linearGradient1075">
      <stop
         id="stop1071"
         offset="0"
         style="stop-color:#ff4655;stop-opacity:0" />
      <stop
         id="stop1073"
         offset="1"
         style="stop-color:#ff4655;stop-opacity:0.58666664" />
    </linearGradient>
    <linearGradient
       gradientTransform="translate(9.2102568,493.71538)"
       gradientUnits="userSpaceOnUse"
       y2="0.065515019"
       x2="149.75197"
       y1="99.532906"
       x1="149.75197"
       id="linearGradient1077"
       xlink:href="#linearGradient1075" />
  </defs>
  <metadata
     id="metadata5">
    <rdf:RDF>
      <cc:Work
         rdf:about="">
        <dc:format>image/svg+xml</dc:format>
        <dc:type
           rdf:resource="http://purl.org/dc/dcmitype/StillImage" />
        <dc:title></dc:title>
      </cc:Work>
    </rdf:RDF>
  </metadata>
  <g
     transform="translate(0,-491.16665)"
     id="layer1">
    <path
       id="path1057"
       d="m 205.28253,521.25249 -6.24415,1.66797 h -22.76757 l -2.42383,1.39844 h -27.53125 l -2.76172,-2.76172 h -5.77539 l 0.0703,3.57031 H 135.929 v -2.34766 H 90.9622 l -2.419922,5.05078 1.707031,2.49024 h 45.820321 v -1.35156 h 0.99609 l 2.00781,3.47656 h 15.63867 l 5.41407,9.3789 h 29.23437 l 10.17578,19.375 2.91602,-0.21289 6.83008,-2.8457 c 2.75192,-1.14663 2.99484,-2.92494 1.06835,-6.26172 l -5.49804,-9.52344 c -2.00705,-3.47631 -1.97874,-6.47802 1.22851,-7.125 3.78117,-0.76274 6.05236,-2.1115 3.98438,-5.69335 z M 183.13604,535.231 c 2.33693,0 1.99422,5.76172 -1.3164,5.76172 h -4.625 c -2.42595,0 -4.13771,-5.72656 -0.64063,-5.72656 h 3.70117 c 1.0791,0 0.6195,2.85763 -0.17969,4.01953 2.3534,0 1.42676,-4.05469 3.06055,-4.05469 z"
       style="fill:url(#linearGradient1077);fill-opacity:1;stroke:#ff4655;stroke-width:2;stroke-linecap:butt;stroke-linejoin:miter;stroke-miterlimit:4;stroke-dasharray:none;stroke-opacity:1" />
  </g>
</svg>
