<?xml version="1.0" encoding="UTF-8" standalone="no"?>
<svg
   xmlns:dc="http://purl.org/dc/elements/1.1/"
   xmlns:cc="http://creativecommons.org/ns#"
   xmlns:rdf="http://www.w3.org/1999/02/22-rdf-syntax-ns#"
   xmlns:svg="http://www.w3.org/2000/svg"
   xmlns="http://www.w3.org/2000/svg"
   xmlns:xlink="http://www.w3.org/1999/xlink"
   width="300"
   height="100"
   viewBox="0 0 300 100"
   version="1.1"
   id="svg8">
  <defs
     id="defs2">
    <linearGradient
       id="linearGradient2046">
      <stop
         id="stop2042"
         offset="0"
         style="stop-color:#ff4655;stop-opacity:0.58823532" />
      <stop
         id="stop2044"
         offset="1"
         style="stop-color:#ff4655;stop-opacity:0;" />
    </linearGradient>
    <linearGradient
       gradientTransform="translate(1.7404603,-1.0433572)"
       gradientUnits="userSpaceOnUse"
       y2="100.20346"
       x2="142.97162"
       y1="-0.18229406"
       x1="142.97162"
       id="linearGradient2048"
       xlink:href="#linearGradient2046" />
  </defs>
  <metadata
     id="metadata5">
    <rdf:RDF>
      <cc:Work
         rdf:about="">
        <dc:format>image/svg+xml</dc:format>
        <dc:type
           rdf:resource="http://purl.org/dc/dcmitype/StillImage" />
        <dc:title></dc:title>
      </cc:Work>
    </rdf:RDF>
  </metadata>
  <path
     id="path2035"
     d="m 64.119366,26.841409 -0.798828,1.990234 v 3.150391 H 61.461163 V 30.251565 H 40.496319 c -2.579717,0 -2.155723,5.318359 0,5.318359 h 21.015625 v -1.109375 h 2.091797 v 2.400391 h -1.601562 c -1.782543,0 -1.539055,4.105469 0,4.105469 H 77.36546 l 2.814453,2.091796 c 0,0 8.236566,1.522343 8.339844,1.470704 0.103277,-0.05164 2.685547,-1.960938 2.685547,-1.960938 l 51.771486,1.763672 12.56055,2.335938 0.01,3.748046 2.24609,0.02734 -3.04687,10.66211 c 0.2582,0.05164 17.04102,4.234375 17.04102,4.234374 l 3.09765,-12.910156 3.4082,-0.361328 3.25391,5.189453 h 7.48633 c 2.15361,-0.71556 4.1586,-0.953462 5.62891,0.517578 1.52206,4.098236 3.47448,8.124044 5.93945,11.179688 -1.35877,1.944835 -0.80925,4.91401 1.91015,4.052734 l 8.80469,-2.787109 c 1.22432,-0.38776 2.39021,-2.101104 -0.41406,-5.990234 l -7.07422,-9.8125 c -2.63518,-3.654626 -0.2524,-8.441407 3.17578,-8.441407 h 4.72461 l 4.73828,-2.736328 h 23.56446 l 9.93164,16.574219 c 1.00544,1.677763 3.0807,1.595153 4.52734,1.021484 l 4.23633,-1.679687 c 1.59913,-0.63414 2.55664,-2.07907 2.55664,-3.796875 V 34.181252 l -1.93555,-1.863281 h -1.46094 l -1.86132,-2.117187 h -6.24414 l -3.39649,1.679687 -39.74219,0.566406 -6.66211,-2.169922 -7.95117,-0.103515 -2.63476,-3.201172 h -3.61328 l -1.85938,1.1875 v 2.013672 h -36.35352 l -1.34374,-1.548828 h -2.21876 v -1.240235 h -10.53515 l -7.02344,2.324219 H 79.404522 l -2.357421,1.361328 h -6.988282 l -1.548828,-1.548828 v -2.679687 z m 12.511719,7.630859 v 2.738281 H 67.502179 V 35.86094 l 3.542969,-0.986328 z M 182.52757,49.564065 h 3.74414 c 2.3359,2.283476 1.53709,3.590578 0.0781,4.880859 2.50785,-0.08461 3.80007,-1.10734 3.92382,-4.802734 3.2714,1.055952 0.37171,6.290769 -2.78906,6.324219 l -4.87891,0.05273 -2.71093,-4.621094 z"
     style="fill:url(#linearGradient2048);fill-opacity:1;stroke:#ff4655;stroke-width:2;stroke-linecap:butt;stroke-linejoin:miter;stroke-miterlimit:4;stroke-dasharray:none;stroke-opacity:1" />
</svg>
