<?xml version="1.0" encoding="UTF-8" standalone="no"?>
<svg
   xmlns:dc="http://purl.org/dc/elements/1.1/"
   xmlns:cc="http://creativecommons.org/ns#"
   xmlns:rdf="http://www.w3.org/1999/02/22-rdf-syntax-ns#"
   xmlns:svg="http://www.w3.org/2000/svg"
   xmlns="http://www.w3.org/2000/svg"
   xmlns:xlink="http://www.w3.org/1999/xlink"
   id="svg8"
   version="1.1"
   viewBox="0 0 400 400"
   height="400"
   width="400">
  <defs
     id="defs2">
    <linearGradient
       id="linearGradient939">
      <stop
         id="stop935"
         offset="0"
         style="stop-color:#ff4655;stop-opacity:0" />
      <stop
         id="stop937"
         offset="1"
         style="stop-color:#ff4655;stop-opacity:0.58666664" />
    </linearGradient>
    <linearGradient
       gradientUnits="userSpaceOnUse"
       y2="0.71568668"
       x2="216.22546"
       y1="401.534"
       x1="216.22546"
       id="linearGradient941"
       xlink:href="#linearGradient939" />
  </defs>
  <metadata
     id="metadata5">
    <rdf:RDF>
      <cc:Work
         rdf:about="">
        <dc:format>image/svg+xml</dc:format>
        <dc:type
           rdf:resource="http://purl.org/dc/dcmitype/StillImage" />
        <dc:title></dc:title>
      </cc:Work>
    </rdf:RDF>
  </metadata>
  <g
     transform="translate(0,-191.16665)"
     id="layer1">
    <path
       id="path914"
       transform="translate(0,191.16665)"
       d="M 242.71484 11.001953 L 235.02539 18.074219 L 230.60547 18.074219 L 223.71094 25.675781 L 223.71094 52.810547 L 179.78125 52.810547 L 179.78125 83.480469 L 133.82031 83.480469 L 133.82031 108.67188 L 90.421875 108.67188 L 90.421875 123.69727 L 27.3125 123.69727 L 27.3125 166.56641 L 36.857422 166.56641 L 36.857422 203.86719 L 51.794922 203.86719 L 51.794922 235.86328 L 54.535156 235.86328 L 54.535156 259.9043 L 39.244141 259.9043 L 39.244141 302.68359 L 88.564453 302.68359 L 88.564453 290.66406 L 91.392578 290.66406 L 91.392578 310.28516 L 83.085938 310.28516 L 83.085938 324.95898 L 144.7793 324.95898 L 144.7793 378.43359 L 165.28711 392.22266 L 206.29883 392.22266 L 230.69336 375.95898 L 230.69336 363.05273 L 227.33398 356.86719 L 230.69336 351.91602 L 230.69336 348.02734 L 208.94922 348.02734 L 208.94922 322.21875 L 265.16602 322.21875 L 265.16602 277.31641 L 253.85156 277.31641 L 253.85156 274.8418 L 265.51953 274.8418 L 265.51953 254.42383 L 269.23047 254.42383 L 269.23047 269.62695 L 296.54297 269.62695 L 296.54297 261.05273 L 309.35938 261.05273 L 342.50391 239.57422 L 371.32031 239.57422 L 371.32031 215.5332 L 359.21094 215.5332 L 359.21094 187.07227 L 371.84961 187.07227 L 371.84961 132.27148 L 359.29883 132.27148 L 359.29883 128.38281 L 366.8125 128.38281 L 366.8125 117.42188 L 359.74023 117.42188 L 359.74023 111.94141 L 354.34961 111.94141 L 354.34961 103.10352 L 344.89062 103.10352 L 344.89062 84.011719 L 285.58203 84.011719 L 285.58203 52.988281 L 264.63477 52.988281 L 264.63477 40.966797 L 261.98242 37.960938 L 261.98242 23.996094 L 258.09375 20.283203 L 258.09375 17.455078 L 254.82422 13.832031 L 250.05078 13.832031 L 242.71484 11.001953 z M 214.96094 71.636719 L 248.37109 71.636719 L 248.37109 100.00977 L 267.41992 100.00977 L 267.41992 146.90039 L 238.69336 146.90039 L 238.69336 153.08789 L 232.10742 153.10938 L 232.10742 137.66406 L 222.38477 127.49805 L 214.07617 127.49805 L 214.07617 109.55664 L 189.0625 109.55664 L 189.0625 126.96875 L 181.63867 126.96875 L 170.85547 137.48633 L 170.85547 140.58008 L 164.40234 140.58008 L 164.40234 134.12695 L 145.92969 134.12695 L 145.92969 98.773438 L 214.96094 98.773438 L 214.96094 71.636719 z M 285.5 99.75 L 332.625 99.75 L 332.625 129 L 325.9375 129 L 325.9375 106.6875 L 308.25 106.6875 L 308.28125 112.5625 L 285.5 112.5625 L 285.5 99.75 z M 107.65625 123.52148 L 124.18555 123.52148 L 124.18555 157.24219 L 127.7207 157.24219 L 127.7207 160.33594 L 124.18555 160.33594 L 124.18555 172.92969 L 139.43359 172.92969 L 139.43359 175.31641 L 130.01953 175.31641 L 130.01953 183.49219 L 98.25 183.4375 L 98.25 166.75 L 107.65625 166.75 L 107.65625 123.52148 z M 285.58203 124.58203 L 307.23828 124.58203 L 307.23828 138.10547 L 292.56641 138.10547 L 292.56641 179.55859 L 304.49805 179.55859 L 304.49805 186.54297 L 281.51758 186.54297 L 281.51758 180.53125 L 269.9375 180.53125 L 269.9375 188.39844 L 267.19727 188.39844 L 267.19727 180.53125 L 235.28906 180.53125 L 235.28906 205.19141 L 241.21094 205.19141 L 241.21094 235.42188 L 246.25 235.42188 L 246.25 237.89648 L 231.93164 237.89648 L 231.93164 274.3125 L 244.04102 274.3125 L 244.04102 277.31641 L 240.32812 277.31641 L 232.01953 285.00586 L 232.01953 293.66797 L 225.30273 293.66797 L 225.2793 291.55859 L 228.75 291.55859 L 228.75 266.00391 L 209.83398 266.00391 L 209.83398 263.79297 L 228.57227 263.79297 L 228.57227 235.68555 L 213.36914 235.68555 L 213.36914 228.52734 L 214.12109 227.73047 L 214.12109 218.88086 L 212.75 216.50586 L 212.75 193.08203 L 204 193.08203 L 204 188.48633 L 231.93164 188.48633 L 231.93164 164.79883 L 238.64844 164.79883 L 238.64844 166.21289 L 265.69531 166.21289 L 265.69531 171.16211 L 276.03711 171.16211 L 276.03711 162.76562 L 285.58203 162.76562 L 285.58203 124.58203 z M 164.22461 151.36328 L 170.81055 151.36328 L 170.81055 188.48633 L 192.33398 188.48633 L 192.33398 192.99414 L 170.76562 192.99414 L 170.76562 210.40625 L 182.60938 210.40625 L 182.60938 236.03906 L 163.82812 236.03906 L 163.82812 223.00195 L 152.55859 223.00195 L 152.60156 220.17383 L 163.7832 220.17383 L 163.7832 175.53711 L 153.08789 175.53711 L 153.08789 172.92969 L 164.22461 172.92969 L 164.22461 160.33594 L 132.44922 160.33594 L 132.44922 157.33008 L 164.22461 157.33008 L 164.22461 151.36328 z M 337.02539 186.09961 L 344.0957 186.09961 L 344.0957 214.82617 L 306.79688 236.83594 L 283.63867 236.83594 L 283.63867 227.64258 L 269.76172 227.64258 L 269.76172 242.75781 L 265.07617 242.75781 L 265.07617 238.07227 L 251.73047 238.07227 L 251.73047 235.24414 L 255.53125 235.24414 L 255.53125 206.69531 L 266.93359 206.69531 L 266.93359 196.70703 L 269.05469 196.70703 L 269.05469 200.68359 L 279.83789 200.68359 L 281.95898 199.00586 L 313.42578 199.00586 L 313.42578 211.02539 L 337.02539 211.02539 L 337.02539 186.09961 z M 98.875 194 L 129.0918 194 L 129.0918 220.08594 L 140.80273 220.08594 L 140.80273 223.13477 L 129.8125 223.13477 L 129.8125 288 L 160.375 288 L 160.42578 292.25 L 144.875 292.25 L 144.875 304.25 L 119.375 304.25 L 119.375 270.125 L 92.375 270.125 L 92.375 278.625 L 88.3125 278.625 L 88.3125 270.3125 L 65.9375 270.3125 L 65.9375 253.125 L 82.3125 253.125 L 82.3125 231.625 L 66.78125 231.625 L 66.78125 206.875 L 67.75 203.75 L 98.875 203.75 L 98.875 194 z M 166.61133 263.70508 L 186.14648 263.70508 L 186.14648 266.0918 L 179.42773 266.0918 L 179.42773 278.99609 L 216.10938 278.99609 L 216.10938 291.45898 L 218.84961 291.45898 L 218.84961 293.75781 L 209.39258 293.75781 L 209.39258 304.27539 L 184.82031 304.27539 L 184.82031 292.25391 L 172.79883 292.25391 L 172.79883 274.48828 L 171.47266 272.7207 L 171.47266 269.89258 L 166.61133 269.89258 L 166.61133 263.70508 z M 157.50781 319.21289 L 198.69727 319.21289 L 198.69727 348.02734 L 157.33203 348.02734 L 157.50781 348.00586 L 157.50781 319.21289 z "
       style="fill:url(#linearGradient941);stroke:#ff4655;stroke-width:2;stroke-linecap:butt;stroke-linejoin:miter;stroke-opacity:1;stroke-miterlimit:4;stroke-dasharray:none;fill-opacity:1" />
  </g>
</svg>
