<?xml version="1.0" encoding="UTF-8" standalone="no"?>
<svg
   xmlns:dc="http://purl.org/dc/elements/1.1/"
   xmlns:cc="http://creativecommons.org/ns#"
   xmlns:rdf="http://www.w3.org/1999/02/22-rdf-syntax-ns#"
   xmlns:svg="http://www.w3.org/2000/svg"
   xmlns="http://www.w3.org/2000/svg"
   xmlns:xlink="http://www.w3.org/1999/xlink"
   id="svg8"
   version="1.1"
   viewBox="0 0 200 400"
   height="400"
   width="200">
  <defs
     id="defs2">
    <linearGradient
       id="linearGradient1473">
      <stop
         id="stop1469"
         offset="0"
         style="stop-color:#ff4655;stop-opacity:0.09333333" />
      <stop
         id="stop1471"
         offset="1"
         style="stop-color:#ff4655;stop-opacity:0.58666664" />
    </linearGradient>
    <linearGradient
       gradientTransform="translate(-1.8801243,1.4537355)"
       gradientUnits="userSpaceOnUse"
       y2="191.14174"
       x2="106.57552"
       y1="591.14172"
       x1="106.57552"
       id="linearGradient1475"
       xlink:href="#linearGradient1473" />
  </defs>
  <metadata
     id="metadata5">
    <rdf:RDF>
      <cc:Work
         rdf:about="">
        <dc:format>image/svg+xml</dc:format>
        <dc:type
           rdf:resource="http://purl.org/dc/dcmitype/StillImage" />
        <dc:title></dc:title>
      </cc:Work>
    </rdf:RDF>
  </metadata>
  <g
     transform="translate(0,-191.16665)"
     id="layer1">
    <path
       id="path1465"
       d="m 123.19018,213.55983 -11.23828,4.86133 c -2.67004,0.4499 -4.58882,3.15826 -6.31445,6.44141 -2.07356,-1.05195 -5.61593,-1.38119 -10.226566,0 -6.11975,1.83327 -12.21156,7.75492 -12.24804,14.45703 0.10538,1.19948 0.21968,2.39385 1.64062,2.93555 -0.63731,10.06594 1.70139,14.11297 3.97852,17.33007 l -0.82227,11.49024 c -2.9096,2.72733 -8.08533,2.74961 -7.70117,9.4082 l -4.92578,4.54492 c -1.70413,-3.01687 -3.28626,-6.0401 0.94726,-9.40625 0.80346,-0.88251 1.45449,-1.75958 -1.00976,-2.52539 l 4.48242,-5.30469 -3.66211,-3.7246 -7.955078,7.26171 c -1.66778,-3.39697 -3.74587,-4.76797 -7.07031,0 l -2.27344,2.83985 c -4.05855,-2.29041 -3.52572,0.56813 -3.85156,2.46289 -2.92864,-0.56354 -2.70484,1.61206 -2.33594,3.91406 -2.1707,0.61184 -0.48454,3.45639 -0.63086,5.24024 -4.37895,4.12701 -7.83728,8.69993 -8.08007,14.83593 6.12027,0.13556 9.19442,-3.30375 12.68945,-6.25 l 8.14453,11.11133 2.01953,0.37891 0.75781,9.09179 c -3.61853,6.36959 -8.17005,11.62083 -13.57422,15.84766 0.0238,3.26376 -0.0422,6.46615 -1.07226,9.02734 2.4428,5.32445 5.77814,6.29795 9.1543,7.07227 l -6.06055,7.07031 v 8.33399 l -3.2832,1.89453 v 11.30078 h 2.33593 l -2.14648,26.64258 6.37695,44.88867 3.34571,11.49023 c 0.007,5.05399 0.0317,10.11647 -1.76758,14.26758 6.50759,6.62478 7.4696,14.63335 1.96679,24.95313 5.07129,7.62893 1.4208,14.87043 0.17969,21.57812 h -6.25 c -1.94833,12.20627 -8.59686,20.59909 -22.79297,23.29688 -6.78362,1.28914 -4.8775,6.07003 0,8.83789 8.53987,4.38906 16.50746,4.77425 23.73828,0 16.044488,-0.53796 20.780838,-2.49933 21.656248,-5.74414 0.68232,-3.6342 -1.91537,-8.22303 -4.10351,-12.69141 1.9206,-3.86852 2.78101,-6.3246 -0.7207,-10.66601 0.88247,-7.14108 1.56569,-14.33475 4.63476,-20.9004 2.40725,-1.45275 3.59774,-5.4316 3.74609,-12.23437 5.22994,-7.73445 8.51982,-14.4472 3.83008,-25.01563 l 1.45117,-5.61914 -1.45117,-4.79687 c 0.21419,-4.81418 -0.71658,-9.29254 -2.52539,-13.51172 0.30543,-8.82804 2.37755,-15.88937 4.29297,-23.10742 5.58155,13.20873 6.61766,26.96291 8.14453,40.6582 0.44521,-6.81733 1.74704,-13.53186 0.25196,-20.58203 l 4.609366,5.17773 c -3.349666,-8.18392 -6.874906,-16.3162 -7.449216,-25.3164 8.199546,11.77227 17.026326,23.25632 19.949216,37.4375 l 6.06055,5.99805 v 6.81835 l 10.48047,9.21875 1.45312,17.86719 9.59571,10.35352 v 4.29297 l 4.73632,5.42968 c 2.1712,5.37572 3.86417,10.804 3.84961,16.41602 -3.32652,0.54314 -4.70957,2.39131 -1.51367,7.32226 v 9.53321 l -7.76562,9.91211 c -2.41298,0.56612 -3.90193,2.44528 -4.29493,5.87304 -6.22936,5.76442 8.18979,5.85622 19.82422,6.06055 4.42931,0.0244 4.83516,-1.20801 6.125,-3.66211 4.23856,-1.78422 8.09436,-4.65757 7.95508,-7.44922 -0.0997,-6.33725 -0.57767,-8.98193 -3.2207,-12.8164 0.0993,-8.49438 -1.2782,-13.2218 -4.54492,-13.13282 l -4.98828,-23.80078 4.10351,-6.82031 c -8.62715,-11.30271 -8.85131,-21.94318 -8.96484,-32.57617 l -10.22657,-11.23828 -0.18945,-5.61914 -4.54687,-6.37696 -2.58789,-15.8457 -3.97657,-15.84766 1.70313,-1.70507 c -9.51208,-11.60876 -14.25558,-25.78348 -17.23438,-40.91016 l 4.48243,0.44141 20.32812,20.07617 c 0.6322,3.81393 1.91655,6.28089 3.85156,3.53711 l 3.66211,-6.50391 7.19727,7.13477 2.46289,-2.58789 -8.14453,-8.83985 3.21875,-5.61914 -4.92383,-0.125 -34.15625,-34.97656 -1.70508,-5.55664 c 4.80761,0.0986 6.63086,0.41342 6.63086,-8.08203 -0.15673,-12.30514 9.71213,-19.6004 14.07813,-29.29297 3.52308,-7.72411 0.51652,-14.61515 -3.78907,-21.33985 l 3.28321,-6.06054 v -4.04102 c 2.10835,-2.72138 4.04794,-7.37539 0,-6.94531 l -21.6543,2.27344 -0.0625,-5.8086 c 4.45035,-5.65653 8.27624,-12.14104 7.25976,-19.95117 4.64907,-0.18014 9.17979,-2.60563 9.1543,-9.02734 0.006,-5.8697 -2.37342,-9.12275 -6.1875,-10.79688 z m -32.230466,50.09766 c 0.8581,1.55947 2.12886,3.5219 4.07227,3.66211 v 1.54687 c -2.10079,-0.18343 -3.87891,0.84307 -5.65039,1.89453 1.37251,-1.70526 1.88754,-4.47319 1.57812,-7.10351 z"
       style="fill:url(#linearGradient1475);fill-opacity:1;stroke:#ff4655;stroke-width:2;stroke-linecap:butt;stroke-linejoin:miter;stroke-miterlimit:4;stroke-dasharray:none;stroke-opacity:1" />
  </g>
</svg>
