<?xml version="1.0" encoding="UTF-8" standalone="no"?>
<svg
   xmlns:dc="http://purl.org/dc/elements/1.1/"
   xmlns:cc="http://creativecommons.org/ns#"
   xmlns:rdf="http://www.w3.org/1999/02/22-rdf-syntax-ns#"
   xmlns:svg="http://www.w3.org/2000/svg"
   xmlns="http://www.w3.org/2000/svg"
   xmlns:xlink="http://www.w3.org/1999/xlink"
   width="300"
   height="100"
   viewBox="0 0 300 100"
   version="1.1"
   id="svg8">
  <defs
     id="defs2">
    <linearGradient
       id="linearGradient2016">
      <stop
         id="stop2012"
         offset="0"
         style="stop-color:#ff4655;stop-opacity:0.58823532" />
      <stop
         id="stop2014"
         offset="1"
         style="stop-color:#ff4655;stop-opacity:0;" />
    </linearGradient>
    <linearGradient
       id="linearGradient1092">
      <stop
         style="stop-color:#ff4655;stop-opacity:0"
         offset="0"
         id="stop1088" />
      <stop
         style="stop-color:#ff4655;stop-opacity:0.58666664"
         offset="1"
         id="stop1090" />
    </linearGradient>
    <linearGradient
       xlink:href="#linearGradient1092"
       id="linearGradient1094"
       x1="166.38609"
       y1="99.810417"
       x2="166.38609"
       y2="-0.2068391"
       gradientUnits="userSpaceOnUse"
       gradientTransform="translate(-0.17041455,492.47169)" />
    <linearGradient
       gradientTransform="translate(-2.3057517,0.57913692)"
       gradientUnits="userSpaceOnUse"
       y2="101.05962"
       x2="150.14137"
       y1="0.26076269"
       x1="150.14137"
       id="linearGradient2018"
       xlink:href="#linearGradient2016" />
  </defs>
  <metadata
     id="metadata5">
    <rdf:RDF>
      <cc:Work
         rdf:about="">
        <dc:format>image/svg+xml</dc:format>
        <dc:type
           rdf:resource="http://purl.org/dc/dcmitype/StillImage" />
        <dc:title></dc:title>
      </cc:Work>
    </rdf:RDF>
  </metadata>
  <path
     id="path2007"
     d="m 160.35636,17.028356 v 9.191406 h -13.50391 l -1.07031,-1.072266 h -28.5957 c -0.91921,-1.099595 -2.24922,-1.173828 -3.71875,-1.173828 -0.49109,-2.307177 -1.48856,-4.544922 -3.12305,-4.544922 -1.51392,0 -0.48735,1.50897 -0.41406,2.685547 0.20269,3.253991 -1.14922,3.171875 -2.54883,3.171875 H 61.010654 l -3.259765,-7.638672 h -3.822266 v 7.746094 l -1.238281,1.652344 h -5.785156 v 1.910156 h -5.730469 c -4.059571,0 -1.767813,7.435547 0.669922,7.435547 h 4.802734 l 1.083984,2.892578 H 45.77042 c -2.974657,0 -1.300263,5.9375 0,5.9375 h 6.402344 l 2.273437,5.060547 h 69.298829 l 6.40234,-1.599609 0.10352,2.582031 -1.85937,2.582031 -2.32422,1.341797 v 2.169922 l 0.82617,1.703125 h -1.91016 v 3.046875 l 1.29102,1.601562 v 2.21875 l -1.23828,2.324219 v 2.478516 h 1.85742 l -0.77344,1.1875 v 1.755859 l 2.27149,1.291016 v 2.169922 l 2.94335,3.201171 h 27.26563 l 3.20117,-2.478515 V 54.104528 h 5.06055 l 8.57226,7.539062 h 10.94727 l 4.33789,-2.892578 c 2.57287,0.948409 2.67504,2.972169 3.09766,4.855469 l 7.4375,14.871094 c -1.95529,2.91524 -0.29843,5.145871 1.96093,4.349609 l 13.22071,-4.660156 c 2.41066,-0.849587 0.85719,-4.802323 -1.24024,-8.158203 l -8.26172,-13.21875 c -3.36123,-2.793962 -4.45134,-5.648561 -1.54882,-8.779297 l 38.93554,0.103515 c 3.29017,0.0087 3.6836,2.30898 4.33789,5.164063 l 1.98828,8.675781 c 0.50781,2.215851 0.77701,3.613281 2.65821,3.613281 h 4.54492 c 2.31694,0 3.20117,-1.376348 3.20117,-4.130859 v -31.91211 c 0,-4.532392 -8.1594,-2.369894 -8.67578,0 h -61.13867 l -13.5293,-2.996093 h -6.40429 l -5.47266,-9.5 z m 25.89648,33.746093 h 3.03125 v 6.353516 l -3.72461,2.847656 h -7.12109 c -3.35045,0 -6.2477,-9.05664 0.29297,-9.05664 h 4.01562 c 5.22225,1.735712 2.83158,4.947747 1.61133,7.433594 2.03749,-1.723292 3.97555,-3.592172 1.89453,-7.578126 z"
     style="fill:url(#linearGradient2018);fill-opacity:1;stroke:#ff4655;stroke-width:2;stroke-linecap:butt;stroke-linejoin:miter;stroke-miterlimit:4;stroke-dasharray:none;stroke-opacity:1" />
</svg>
