<?xml version="1.0" encoding="UTF-8" standalone="no"?>
<svg
   xmlns:dc="http://purl.org/dc/elements/1.1/"
   xmlns:cc="http://creativecommons.org/ns#"
   xmlns:rdf="http://www.w3.org/1999/02/22-rdf-syntax-ns#"
   xmlns:svg="http://www.w3.org/2000/svg"
   xmlns="http://www.w3.org/2000/svg"
   xmlns:xlink="http://www.w3.org/1999/xlink"
   width="300"
   height="100"
   viewBox="0 0 300 100"
   version="1.1"
   id="svg8">
  <defs
     id="defs2">
    <linearGradient
       id="linearGradient2099">
      <stop
         id="stop2095"
         offset="0"
         style="stop-color:#ff4655;stop-opacity:0.58823532" />
      <stop
         id="stop2097"
         offset="1"
         style="stop-color:#ff4655;stop-opacity:0;" />
    </linearGradient>
    <linearGradient
       gradientTransform="translate(-1.2223236,0.63424803)"
       gradientUnits="userSpaceOnUse"
       y2="99.558632"
       x2="152.53168"
       y1="0.4122068"
       x1="152.53168"
       id="linearGradient2101"
       xlink:href="#linearGradient2099" />
  </defs>
  <metadata
     id="metadata5">
    <rdf:RDF>
      <cc:Work
         rdf:about="">
        <dc:format>image/svg+xml</dc:format>
        <dc:type
           rdf:resource="http://purl.org/dc/dcmitype/StillImage" />
        <dc:title></dc:title>
      </cc:Work>
    </rdf:RDF>
  </metadata>
  <path
     id="path2086"
     d="m 165.00229,24.931123 v 2.066406 h -3.97656 v -1.291015 h -4.07813 v 1.341796 h -9.45117 v -1.083984 h -3.20117 v 6.50586 h 3.09961 v -0.722657 h 11.20508 l 1.34179,1.447266 -5.31836,2.943359 -38.26367,1.548828 -2.58203,-2.220703 h -1.60156 v -1.80664 h -1.59961 v 1.703125 h -1.55078 l -2.63282,2.117187 H 26.250332 l -6.146484,-2.167969 v -1.755859 h -6.50586 v 4.105469 H 7.5296295 c -1.8619034,0 -1.8574144,5.265625 0,5.265625 H 85.681973 v 2.863281 l 6.353515,4.892578 81.791022,1.167969 v 1.533203 l 7.15625,3.724609 h 4.67383 c 3.069,3.460886 7.36822,5.900739 12.26953,6.28125 5.17578,7.188657 12.51968,8.641278 19.35156,11.464844 l 3.43359,-4.380859 v -2.628906 l 3.86914,2.554687 17.89258,-4.746094 46.73828,7.595703 c 2.84751,0.462721 3.15702,-1.497325 3.14063,-3.652343 -0.0575,-7.568457 -0.16811,-15.123148 1.45898,-22.785157 0.524,-2.467509 -2.08154,-3.530173 -5.33984,-3.1875 l -57.93945,6.09375 c -1.21086,5.299731 -6.29172,3.459408 -11.56641,0.414063 L 197.9437,37.995576 h -12.95704 l -3.04687,-3.509766 -5.42188,-0.77539 v -1.962891 h 6.14454 c 1.23603,1.52915 2.54148,1.291016 3.87304,1.291016 h 10.74219 c 0.75046,-3.049323 0.7632,-5.109534 0,-7.847656 h -10.27734 c -1.6917,0 -3.5524,-0.132941 -4.38868,1.392578 h -5.42187 V 25.86081 h -4.33789 v 1.083985 h -2.47852 v -2.013672 z m -2.53125,6.800781 h 10.47852 v 2.117188 h -8.21485 l -2.19141,-1.021485 z m 33.07617,20.464844 c 3.15219,1.163092 2.32797,3.991053 1.1875,6.300781 1.61456,-1.883809 2.83811,-2.939016 3.04688,-5.396484 1.06621,0.157807 2.3113,0.714196 3.04687,1.806641 -1.04922,2.558725 -2.60438,4.427129 -4.72461,5.52539 l -4.80273,-0.412109 c -4.31136,-0.37087 -4.78779,-7.730848 0.31054,-7.798828 z m 9.60742,5.730469 c 1.99905,-0.03121 4.61343,1.923094 7.92383,4.546875 4.75578,3.769368 5.66028,5.873236 3.76953,8.365234 -1.71125,2.255415 -4.53825,1.049218 -10.17187,-2.478516 -4.03357,-2.52579 -7.19275,-4.229135 -3.87305,-9.037109 0.66149,-0.95805 1.44291,-1.382297 2.35156,-1.396484 z"
     style="fill:url(#linearGradient2101);fill-opacity:1;stroke:#ff4655;stroke-width:2;stroke-linecap:butt;stroke-linejoin:miter;stroke-miterlimit:4;stroke-dasharray:none;stroke-opacity:1" />
</svg>
