<?xml version="1.0" encoding="UTF-8" standalone="no"?>
<svg
   xmlns:dc="http://purl.org/dc/elements/1.1/"
   xmlns:cc="http://creativecommons.org/ns#"
   xmlns:rdf="http://www.w3.org/1999/02/22-rdf-syntax-ns#"
   xmlns:svg="http://www.w3.org/2000/svg"
   xmlns="http://www.w3.org/2000/svg"
   xmlns:xlink="http://www.w3.org/1999/xlink"
   width="300"
   height="100"
   viewBox="0 0 300 100"
   version="1.1"
   id="svg8">
  <defs
     id="defs2">
    <linearGradient
       id="linearGradient2181">
      <stop
         id="stop2177"
         offset="0"
         style="stop-color:#ff4655;stop-opacity:0.58823532" />
      <stop
         id="stop2179"
         offset="1"
         style="stop-color:#ff4655;stop-opacity:0;" />
    </linearGradient>
    <linearGradient
       gradientTransform="translate(-2.6982201,3.4753721)"
       gradientUnits="userSpaceOnUse"
       y2="100.02238"
       x2="169.37885"
       y1="0.049741883"
       x1="169.37885"
       id="linearGradient2183"
       xlink:href="#linearGradient2181" />
  </defs>
  <metadata
     id="metadata5">
    <rdf:RDF>
      <cc:Work
         rdf:about="">
        <dc:format>image/svg+xml</dc:format>
        <dc:type
           rdf:resource="http://purl.org/dc/dcmitype/StillImage" />
        <dc:title></dc:title>
      </cc:Work>
    </rdf:RDF>
  </metadata>
  <path
     id="path2154"
     d="m 247.44045,9.285919 -6.40429,0.4140625 -23.33985,7.8476565 -17.76367,2.685546 -20.86328,8.263672 c -3.172,1.256237 -6.81434,2.887118 -11.15235,-0.828125 l -4.75195,1.654297 c 0.80182,3.845725 -1.31506,5.850264 -4.13086,6.814453 l -12.16992,4.167969 c -3.89587,1.334026 -1.72381,4.573608 -5.22852,5.769531 -1.10777,0.378006 -2.25827,-1.185939 -0.61523,-3.505859 -5.78625,1.55042 -2.78445,4.566056 -7.00977,5.988281 -1.43355,0.482526 -1.89709,-1.407403 -0.58398,-2.99414 -5.44317,1.92966 -1.82573,4.715541 -6.20703,6.0625 -1.62147,0.498496 -1.61866,-1.754066 -0.6582,-3.28711 -5.47071,2.207905 -2.15201,5.3354 -6.24415,6.353516 -1.26981,0.315929 -2.90432,-0.23658 -1.38671,-3.431641 -5.26718,2.184392 -2.22706,5.288718 -5.91602,6.425782 -1.51881,0.468147 -3.20421,-1.020353 -1.27734,-3.50586 -5.50864,2.116253 -1.76459,4.616447 -6.13244,6.419303 -1.24613,0.640612 -2.59898,-0.806836 -1.56664,-2.772342 L 54.104514,87.364044 c 13.486003,3.489519 37.154302,6.052041 57.421876,-1.445313 l 50.8125,-18.796875 c 1.97117,-11.747805 9.64109,-14.358649 15.49219,-5.939453 l 6.5625,0.15625 c -1.67657,-13.771715 3.97518,-18.572269 14.8457,-16.367187 4.31422,-5.327668 9.85609,-6.438555 16.18555,-3.462891 4.44285,-4.433134 7.82011,-5.550933 15.69726,-3.511719 l 4.33789,-1.238281 7.02344,5.576172 3.92383,-1.859375 z m -4.64844,3.046875 -0.15429,4.595703 -3.25391,0.619141 h -8.36523 l -1.70313,-1.392578 11.46289,-3.769532 z"
     style="fill:url(#linearGradient2183);fill-opacity:1;stroke:#ff4655;stroke-width:2;stroke-linecap:butt;stroke-linejoin:miter;stroke-miterlimit:4;stroke-dasharray:none;stroke-opacity:1" />
</svg>
