<?xml version="1.0" encoding="UTF-8" standalone="no"?>
<svg
   xmlns:dc="http://purl.org/dc/elements/1.1/"
   xmlns:cc="http://creativecommons.org/ns#"
   xmlns:rdf="http://www.w3.org/1999/02/22-rdf-syntax-ns#"
   xmlns:svg="http://www.w3.org/2000/svg"
   xmlns="http://www.w3.org/2000/svg"
   xmlns:xlink="http://www.w3.org/1999/xlink"
   width="300"
   height="100"
   viewBox="0 0 300 100"
   version="1.1"
   id="svg8">
  <defs
     id="defs2">
    <linearGradient
       id="linearGradient2150">
      <stop
         id="stop2146"
         offset="0"
         style="stop-color:#ff4655;stop-opacity:0.58823532" />
      <stop
         id="stop2148"
         offset="1"
         style="stop-color:#ff4655;stop-opacity:0;" />
    </linearGradient>
    <linearGradient
       gradientTransform="translate(0.61568002,1.4467883)"
       gradientUnits="userSpaceOnUse"
       y2="100.2572"
       x2="155.15953"
       y1="0.64668739"
       x1="155.15953"
       id="linearGradient2152"
       xlink:href="#linearGradient2150" />
  </defs>
  <metadata
     id="metadata5">
    <rdf:RDF>
      <cc:Work
         rdf:about="">
        <dc:format>image/svg+xml</dc:format>
        <dc:type
           rdf:resource="http://purl.org/dc/dcmitype/StillImage" />
        <dc:title></dc:title>
      </cc:Work>
    </rdf:RDF>
  </metadata>
  <path
     id="path2139"
     d="m 195.23677,15.347179 -8.39843,2.044921 h -10.07813 v 2.335938 h -13.07226 l -13.94922,4.820312 -11.90235,1.751954 H 84.014118 l -6.572266,1.023437 v 1.824219 h -6.28125 V 27.323741 L 68.531696,24.7671 v -5.695312 h -3.140625 l -1.789063,1.03125 v 9.044922 h -10.1875 V 28.126476 H 27.416461 c -3.188859,0 -2.804707,7.814453 0,7.814453 H 53.488727 V 34.99171 h 9.201172 v 2.554687 h -6.134766 c -1.805093,0 -1.745491,6.792969 0,6.792969 h 23.662109 l 1.642579,1.642578 h 51.009769 l 3.28711,2.884766 h 19.79101 l 7.74024,2.628906 h 8.0332 l 0.0723,27.019531 4.67383,6.134766 37.31836,-0.21875 c 1.51297,-0.0089 1.82617,-1.830199 1.82617,-4.601563 V 57.265147 l -3.21484,-6.5 h 9.05664 l 3.43164,-3.066406 h 33.8125 c 2.60021,0 8.14016,-2.032832 11.18555,-3.025391 3.07882,-1.003453 4.53747,-2.68232 4.68945,-4.839843 0.16964,-2.40834 0.42453,-6.226936 0.10352,-8.875 -0.15655,-1.291423 -0.50481,-1.868139 -3.09766,-3.498047 -2.59286,-1.629908 -8.41185,-3.935547 -10.39844,-3.935547 h -15.48242 l -1.49609,-1.496094 H 218.9692 l -1.09375,-2.154297 -4.5293,-0.802734 h -6.9375 l -2.26367,-1.607422 h -2.99414 v -1.242187 l -1.53321,-0.875 z m 60.62891,13.238281 c 4.18955,0.126276 8.25103,0.587075 11.66992,2.736328 0.94273,0.758699 1.786,1.86129 1.65235,3.304688 l -0.25782,2.789062 c -0.21987,2.374584 -1.56037,3.393452 -3.09765,3.923828 -2.87356,0.991406 -5.92455,1.558594 -9.14063,1.703125 l -16.11133,0.259766 c -2.48285,0.03979 -2.33239,-1.893852 -1.13476,-2.273438 3.39118,-1.074825 6.9707,-2.320768 6.9707,-5.990234 v -5.164063 c 3.78073,-0.117931 5.05117,1.404355 6.09375,3.203125 1.71296,-1.138962 2.91147,-2.267272 3.35547,-4.492187 z M 71.635211,35.356944 h 7.121094 v 1.714844 h -7.011719 z"
     style="fill:url(#linearGradient2152);fill-opacity:1;stroke:#ff4655;stroke-width:2;stroke-linecap:butt;stroke-linejoin:miter;stroke-miterlimit:4;stroke-dasharray:none;stroke-opacity:1" />
</svg>
