<?xml version="1.0" encoding="UTF-8" standalone="no"?>
<svg
   xmlns:dc="http://purl.org/dc/elements/1.1/"
   xmlns:cc="http://creativecommons.org/ns#"
   xmlns:rdf="http://www.w3.org/1999/02/22-rdf-syntax-ns#"
   xmlns:svg="http://www.w3.org/2000/svg"
   xmlns="http://www.w3.org/2000/svg"
   xmlns:xlink="http://www.w3.org/1999/xlink"
   id="svg8"
   version="1.1"
   viewBox="0 0 200 400"
   height="400"
   width="200">
  <defs
     id="defs2">
    <linearGradient
       id="linearGradient1495">
      <stop
         id="stop1491"
         offset="0"
         style="stop-color:#ff4655;stop-opacity:0" />
      <stop
         id="stop1493"
         offset="1"
         style="stop-color:#ff4655;stop-opacity:0.59111112" />
    </linearGradient>
    <linearGradient
       gradientTransform="translate(3.4852498,-5.6149121)"
       gradientUnits="userSpaceOnUse"
       y2="191.72058"
       x2="106.95275"
       y1="592.24609"
       x1="106.95275"
       id="linearGradient1497"
       xlink:href="#linearGradient1495" />
  </defs>
  <metadata
     id="metadata5">
    <rdf:RDF>
      <cc:Work
         rdf:about="">
        <dc:format>image/svg+xml</dc:format>
        <dc:type
           rdf:resource="http://purl.org/dc/dcmitype/StillImage" />
        <dc:title></dc:title>
      </cc:Work>
    </rdf:RDF>
  </metadata>
  <g
     transform="translate(0,-191.16665)"
     id="layer1">
    <path
       id="path1489"
       d="m 138.57454,561.35531 c 0,6.99315 27.5,7.07126 27.5,0.53572 v -4.64286 c -4.32229,-3.25096 -6.01538,-8.43 -6.78572,-14.28572 0.5015,-3.44315 0.55849,-7.20031 -2.6894,-11.43306 l -0.26786,-4.46428 c 0,0 3.76083,3.48663 4.02869,2.77234 0.26786,-0.71428 1.85268,-3.77232 1.85268,-3.77232 l -6.51786,-3.30357 c -0.0138,-13.70186 0.91391,-27.13471 4.21875,-39.88839 0,0 4.19643,2.41071 4.28572,1.96428 0.0893,-0.44642 2.76785,-4.64285 2.76785,-4.64285 l -6.16071,-1.25 c 1.69537,-5.71936 0.76828,-11.36379 -1.69643,-16.96429 l 5.53571,-6.51786 -1.78571,-1.69642 -2.94643,3.30357 -0.0893,-5.89286 1.60714,-2.05357 -4.55357,-6.07143 4.55357,-6.16071 -4.375,-12.14286 7.67857,-7.67857 -4.55357,-21.69643 8.39286,9.82143 -8.48215,-28.125 3.125,3.39285 -4.28571,-22.23214 2.23214,-7.58928 c -4.2128,-14.67262 -3.76274,-29.34524 -3.75,-44.01786 3.1449,-4.23605 5.44408,-9.31783 4.91072,-17.23215 l -1.875,-9.28571 1.875,-1.33929 -2.67858,-4.46428 2.23215,-2.67857 -7.58929,-4.91072 v -2.32142 l -18.38835,-9.25956 c -0.88071,-5.41518 -0.84832,-11.52356 -5.21555,-15.03699 -3.24825,-10.27366 -5.02481,-21.51741 -16.20219,-24.43628 -12.92927,2.40869 -18.66776,19.57624 -24.65817,41.94711 l 1.42857,1.78572 -7.85714,8.39285 c -2.97612,0.0549 -5.5947,0.0269 -4.91072,3.03572 -4.37645,0.20757 -6.05804,-0.0781 -5.71428,3.30357 -5.04848,1.27797 -4.61628,2.77949 -3.92858,4.82143 -3.29082,1.30221 -4.07794,3.01419 -2.14285,5.17857 l 6.69643,7.05357 c -9.10576,11.81393 -22.68978,24.59212 -21.33929,37.5 8.91222,-7.72599 15.57191,-16.85982 22.67857,-25.71429 l 0.98214,1.33929 c -4.91774,6.86098 -10.07748,13.58079 -12.23214,22.05357 l -3.75,10.26786 c -2.45048,4.18206 -4.05865,8.73848 -5.44643,13.39286 -7.16223,20.15259 -0.65443,25.4222 -0.26785,34.10714 l 0.625,4.64286 6.875,5.625 c 1.29338,-3.20258 -2.11414,-4.87188 -3.25893,-7.63393 3.94075,-1.00976 6.92174,0.47309 9.77678,-0.84822 -1.41108,-0.4189 -2.8412,-1.11911 -4.06118,-2.24297 1.47267,0.14534 3.46732,-0.76247 4.95404,-1.14988 -5.93644,-0.76691 -6.17365,-6.78605 -6.16071,-13.03572 0.10843,-7.4631 2.06458,-11.16705 5.625,-11.60714 3.15296,1.00144 4.15891,3.72049 5.625,6.07143 1.37657,-3.35241 0.84554,-7.89504 -1.11674,-9.87267 -1.90643,-1.92132 -3.98871,-2.14559 -7.49934,-1.95769 2.15139,-13.13612 12.58823,-19.03373 19.6875,-27.54465 1.3108,3.07635 2.31001,5.96004 4.91072,6.33929 v 3.21429 h -3.03572 l 2.14286,7.32143 c -7.18497,-0.1748 -6.41759,15.44493 -6.96428,21.60714 h -3.75 v 16.42857 c -1.48053,4.76353 -3.8846,9.91436 -1.875,13.21429 l -5.80358,21.875 1.96429,4.55357 c -1.55029,12.30233 -4.5485,25.00685 -0.35714,35.71428 l -2.32143,13.30358 h -5.17857 v 4.19642 h 5.17857 c -0.44551,12.72454 0.78565,26.68836 -3.21429,36.78572 h -4.55357 v 4.28571 l 3.83929,-2.5 c -5.29793,15.44299 -16.30671,24.39852 -31.69643,30.17857 -3.48827,2.02014 -4.25401,6.72767 0,7.32143 9.50681,1.07788 16.41696,1.01082 23.57143,0 6.47288,-4.59632 13.72973,-7.26835 22.05357,-7.32143 5.26367,-2.91979 4.6619,-10.2138 0,-20.53571 3.14909,-17.99514 8.90655,-35.09599 17.94643,-51.07143 v -14.19643 l 2.41071,-5.26785 v -9.91072 l 9.64286,-15.44643 2.5,-15.08928 h 2.76785 v -11.33929 c 0.16588,-2.97526 3.17282,-1.98248 4.28572,0 4.9928,11.04834 1.95078,18.73327 0,26.875 5.39802,4.38619 8.23411,10.45089 8.75,18.03572 -2.37135,6.5737 -2.48301,12.17333 4.01786,16.90563 -2.91608,23.99648 4.57531,24.26646 6.42857,38.54079 l -4.10715,3.39286 2.76786,4.19643 2.76786,-2.41071 v 27.14285 c -1.84047,4.18824 -0.96075,8.6965 0,13.21429 1.02325,3.55938 0.99698,6.85639 0,9.91071 z"
       style="fill:url(#linearGradient1497);fill-opacity:1;stroke:#ff4655;stroke-width:2;stroke-linecap:butt;stroke-linejoin:miter;stroke-miterlimit:4;stroke-dasharray:none;stroke-opacity:1" />
  </g>
</svg>
