<?xml version="1.0" encoding="UTF-8" standalone="no"?>
<svg
   xmlns:dc="http://purl.org/dc/elements/1.1/"
   xmlns:cc="http://creativecommons.org/ns#"
   xmlns:rdf="http://www.w3.org/1999/02/22-rdf-syntax-ns#"
   xmlns:svg="http://www.w3.org/2000/svg"
   xmlns="http://www.w3.org/2000/svg"
   xmlns:xlink="http://www.w3.org/1999/xlink"
   width="300"
   height="100"
   viewBox="0 0 300 100"
   version="1.1"
   id="svg8">
  <defs
     id="defs2">
    <linearGradient
       id="linearGradient2122">
      <stop
         id="stop2118"
         offset="0"
         style="stop-color:#ff4655;stop-opacity:0.58823532" />
      <stop
         id="stop2120"
         offset="1"
         style="stop-color:#ff4655;stop-opacity:0;" />
    </linearGradient>
    <linearGradient
       gradientTransform="translate(-1.087947,-3.8148573)"
       gradientUnits="userSpaceOnUse"
       y2="99.968704"
       x2="164.218"
       y1="-0.51815122"
       x1="164.218"
       id="linearGradient2124"
       xlink:href="#linearGradient2122" />
  </defs>
  <metadata
     id="metadata5">
    <rdf:RDF>
      <cc:Work
         rdf:about="">
        <dc:format>image/svg+xml</dc:format>
        <dc:type
           rdf:resource="http://purl.org/dc/dcmitype/StillImage" />
        <dc:title></dc:title>
      </cc:Work>
    </rdf:RDF>
  </metadata>
  <path
     id="path2103"
     d="m 183.59955,20.755455 -2.33203,2.332032 h -2.48633 l -0.625,1.080078 h -11.42578 v -3.054688 h -5.91406 v 3.285157 h -4.74805 v -0.949219 h -3.79687 v 0.949219 h -4.01758 l -5.91407,-1.460938 h -22.63867 l 5.54883,9.128906 -2.22656,2.228516 H 32.359319 L 31.044865,33.454674 H 7.8944749 c -2.4946742,0 -2.2139472,7.667969 0,7.667969 H 30.826115 l 1.605469,-0.804688 h 84.712886 l -3.94336,4.966797 c -3.3394,4.20517 0.0609,7.969499 1.89844,7.375 l 9.93164,-3.21289 41.91406,2.328125 3.40821,5.371094 3.92382,0.207031 -0.10351,3.820312 29.22851,5.164063 0.20508,-4.337891 c 7.12616,2.467099 13.07844,1.688669 18.73438,1.25 4.17395,-0.323727 3.79785,3.606495 2.95703,5.585938 4.41474,1.646716 4.34132,4.444413 4.01758,7.339843 -0.20001,1.78884 0.20558,3.532964 2.30078,2.957032 l 7.70312,-2.117188 c 1.32221,-0.36345 3.84951,-0.599195 0.98633,-5.111328 l -6.97461,-10.992188 v -7.046874 c 0,-3.201693 1.62666,-3.796875 4.3457,-3.796876 h 14.75196 c 4.09312,5.367633 7.86187,9.512699 13.98437,9.275391 l 10.95508,12.669922 h 13.18164 c 1.77048,0 2.73828,-1.271999 2.73828,-4.382813 v -4.453124 c 0,-2.074594 -0.89062,-5.814188 -0.89062,-11.480469 0,-6.185769 1.47461,-9.845421 1.47461,-11.378907 v -3.523437 c 0,-3.287693 -0.98611,-3.925781 -2.77539,-3.925781 h -19.57032 l -1.72656,-0.996094 h -28.58008 c -2.83403,0 -2.48088,2.167548 -1.24218,3.40625 l 3.54101,3.542969 H 223.6933 l -1.33398,-1.333985 h -2.82813 l -3.21484,-3.888672 h -37.86524 v -1.386718 h 18.98828 c 1.27782,-3.030672 1.17232,-6.293499 0,-9.091797 h -4.63672 l -1.07812,-1.078125 h -2.35547 l -0.74414,-1.28711 z m 30.49023,35.007813 c 2.71654,0.0715 2.60568,2.556865 0.0723,4.966797 2.64885,-1.45074 3.46838,-1.003382 4.12695,-4.601563 2.98149,-0.144854 3.04373,5.988282 0.0371,5.988282 h -5.29492 c -4.56722,0 -4.256,-6.493387 1.05859,-6.353516 z"
     style="fill:url(#linearGradient2124);fill-opacity:1;stroke:#ff4655;stroke-width:2;stroke-linecap:butt;stroke-linejoin:miter;stroke-miterlimit:4;stroke-dasharray:none;stroke-opacity:1" />
</svg>
