<?xml version="1.0" encoding="UTF-8" standalone="no"?>
<svg
   xmlns:dc="http://purl.org/dc/elements/1.1/"
   xmlns:cc="http://creativecommons.org/ns#"
   xmlns:rdf="http://www.w3.org/1999/02/22-rdf-syntax-ns#"
   xmlns:svg="http://www.w3.org/2000/svg"
   xmlns="http://www.w3.org/2000/svg"
   xmlns:xlink="http://www.w3.org/1999/xlink"
   width="300"
   height="100"
   viewBox="0 0 300 100"
   version="1.1"
   id="svg8">
  <defs
     id="defs2">
    <linearGradient
       id="linearGradient2069">
      <stop
         id="stop2065"
         offset="0"
         style="stop-color:#ff4655;stop-opacity:0.58823532" />
      <stop
         id="stop2067"
         offset="1"
         style="stop-color:#ff4655;stop-opacity:0" />
    </linearGradient>
    <linearGradient
       gradientTransform="translate(5.209199,-5.512695)"
       gradientUnits="userSpaceOnUse"
       y2="100.61967"
       x2="157.39494"
       y1="0.23391168"
       x1="157.39494"
       id="linearGradient2063"
       xlink:href="#linearGradient2069" />
  </defs>
  <metadata
     id="metadata5">
    <rdf:RDF>
      <cc:Work
         rdf:about="">
        <dc:format>image/svg+xml</dc:format>
        <dc:type
           rdf:resource="http://purl.org/dc/dcmitype/StillImage" />
        <dc:title></dc:title>
      </cc:Work>
    </rdf:RDF>
  </metadata>
  <path
     id="path2050"
     d="m 185.89279,24.413086 -4.13086,2.94336 h -12.65039 v -1.652344 l -1.59179,-0.917969 h -6.72266 l -8.93359,1.175781 v 1.240235 h -42.8086 l -1.25586,-2.175782 h -8.453122 c -1.993921,2.15246 -3.113377,4.499043 -3.873047,6.925782 H 41.459199 l -1.960938,4.130859 c -0.935827,1.970162 -1.764755,5.313343 1.960938,5.320313 l 55.203125,0.103515 c 0.909281,-0.11302 1.247835,-0.988039 1.548828,-1.912109 0,0 2.874268,6.63959 5.833988,6.662109 1.37001,0.01042 2.98905,-0.798168 3.76953,-2.632812 h 36.66406 c 5.39949,0 7.07422,3.38246 7.07422,10.222656 h 0.77539 l -0.1543,21.740234 h 18.69141 V 56.997071 c 4.7182,0.178409 7.47661,2.035846 11.41211,1.859375 2.42685,-0.108822 4.59847,-0.660225 6.25,-2.324219 l 7.22852,14.408203 c -0.77611,2.092959 0.002,4.03168 2.32421,2.994141 l 9.70703,-4.337891 c 1.21448,-0.542637 1.84416,-1.635573 0.67188,-3.666016 l -7.36914,-12.763671 c -1.5393,-2.666138 -0.16594,-6.134766 2.98047,-6.134766 h 18.95117 l 5.47266,10.017578 c 0.79499,1.454986 2.0891,2.47924 3.56445,2.582031 l 25.19922,1.75586 c 1.35508,0.09441 2.71243,-0.329604 2.78906,-1.75586 l 1.25,-23.289062 c 0.0945,-1.757923 -1.68615,-2.634766 -3.4707,-2.634766 h -46.16602 l -13.06445,-5.9375 h -6.24805 l -2.16797,-3.357422 z m -9.72461,24.431641 h 4.3086 c 3.65507,3.405116 2.64476,4.764983 1.36914,6.572266 1.6544,-1.522611 3.77929,-2.665954 1.29687,-6.5 l 3.25,0.03711 c 2.23367,3.410162 1.4913,5.72699 -0.40234,7.083984 -1.36359,0.977156 -5.67361,2.082588 -11.17383,-0.802734 v -5.222656 z m 66.47657,7.11914 6.71289,0.15625 c 0,0 1.85951,2.271246 1.49804,2.167969 -0.36147,-0.103278 -8.88281,-0.515625 -8.88281,-0.515625 z"
     style="fill:url(#linearGradient2063);fill-opacity:1;stroke:#ff4655;stroke-width:2;stroke-linecap:butt;stroke-linejoin:miter;stroke-miterlimit:4;stroke-dasharray:none;stroke-opacity:1" />
</svg>
