<?xml version="1.0" encoding="UTF-8" standalone="no"?>
<svg
   xmlns:dc="http://purl.org/dc/elements/1.1/"
   xmlns:cc="http://creativecommons.org/ns#"
   xmlns:rdf="http://www.w3.org/1999/02/22-rdf-syntax-ns#"
   xmlns:svg="http://www.w3.org/2000/svg"
   xmlns="http://www.w3.org/2000/svg"
   xmlns:xlink="http://www.w3.org/1999/xlink"
   id="svg8"
   version="1.1"
   viewBox="0 0 200 400"
   height="400"
   width="200">
  <defs
     id="defs2">
    <linearGradient
       id="linearGradient1519">
      <stop
         id="stop1515"
         offset="0"
         style="stop-color:#ff4655;stop-opacity:0.04444445" />
      <stop
         id="stop1517"
         offset="1"
         style="stop-color:#ff4655;stop-opacity:0.58666664" />
    </linearGradient>
    <linearGradient
       gradientTransform="translate(-1.343952,190.20173)"
       gradientUnits="userSpaceOnUse"
       y2="0.44963959"
       x2="107.6426"
       y1="401.98529"
       x1="107.6426"
       id="linearGradient1521"
       xlink:href="#linearGradient1519" />
  </defs>
  <metadata
     id="metadata5">
    <rdf:RDF>
      <cc:Work
         rdf:about="">
        <dc:format>image/svg+xml</dc:format>
        <dc:type
           rdf:resource="http://purl.org/dc/dcmitype/StillImage" />
        <dc:title></dc:title>
      </cc:Work>
    </rdf:RDF>
  </metadata>
  <g
     transform="translate(0,-191.16665)"
     id="layer1">
    <path
       id="path1510"
       d="m 102.85136,218.09626 c -0.65993,-0.0257 -1.9448,0.64061 -3.748042,2.13672 -0.2962,-3.82344 -5.78506,1.44327 -6.88282,5.17774 -2.04858,-1.90237 -2.1355,0.98905 -2.77734,2.52539 -1.14335,-3.44978 -3.00893,-1.20837 -2.77735,1.38867 l 1.76758,19.82422 c -1.57304,-0.0911 -2.34343,1.21513 -1.19922,2.71484 2.82792,3.70653 4.30586,7.42595 4.60938,10.29102 l 0.25195,2.77734 c -4.52907,3.33066 -6.20598,6.89821 -7.70312,10.48047 l -14.83594,6.56641 c -9.76824,4.32297 -11.18725,9.93695 -12.81641,21.33984 -1.30412,9.12787 -0.59383,18.30164 -5.17773,26.13672 -2.72903,4.66462 -5.78072,17.8881 -4.54492,25.2539 -2.32642,4.30736 -1.03377,6.02999 -1.26368,8.83985 -1.52257,3.38182 -0.56983,6.19088 0,9.08984 h -5.68164 l 3.41016,6.31445 h 1.89258 c 1.47194,3.58891 2.15524,7.22772 1.76953,10.98438 -2.06626,4.2537 -2.31985,9.38647 -1.45313,13.89062 0.94036,4.88679 2.21506,2.48044 3.59961,3.03125 v 4.92383 l 3.0293,3.0293 c 0.42973,4.38318 -1.1785,11.06099 1.64258,12.7539 l -4.79883,29.16797 4.41992,4.16797 -4.04101,20.20313 4.54492,0.88281 2.7793,-19.57227 3.15625,0.37891 5.30273,-28.91406 2.52539,0.5039 c -0.75185,11.83349 -0.92942,24.38896 -6.1875,30.55664 -0.58675,8.33501 -0.36671,17.01087 -1.76758,25.00196 1.36539,3.43648 3.25773,6.66917 0,11.36523 3.71011,6.9448 5.42403,14.6945 0.50586,20.83399 -2.61895,3.26931 -3.04457,6.99001 -3.72461,10.73242 1.88165,7.61156 -3.01102,13.59867 -3.85156,20.83398 -2.47488,2.07607 -2.15661,4.32721 -2.02148,6.56641 0.27821,5.43193 23.90392,5.13192 23.74023,0 v -4.41992 c 1.77441,-0.87663 2.60291,-2.78472 2.52539,-5.68164 l -0.75781,-6.81836 v -5.93555 h 1.51367 v -9.46875 h -1.64063 l -1.51562,-4.67188 c 0.48292,-9.71155 3.01131,-18.27823 7.70312,-25.63281 0.81993,-8.55818 2.8951,-16.73413 7.57618,-24.11719 -2.35935,-6.17831 0.0615,-12.46818 4.92382,-18.81445 l 9.974622,-42.04883 c 0.8891,-3.31816 3.50004,-3.43305 4.41992,0 l 8.33398,45.45704 c 2.25466,5.6098 0.91608,9.39364 0.12696,13.63867 -0.6386,3.43532 -0.68316,4.78281 0.4414,9.5332 0.96235,4.06514 0.70676,6.84698 -0.0625,10.16406 -0.61408,2.64783 -0.77936,7.71165 0.25195,11.11133 1.11621,3.6795 0.25196,9.2168 0.25196,9.2168 -4.86664,-0.18622 -4.5818,4.47691 -1.76758,5.93554 -0.52969,7.81228 0.0725,16.37904 -2.27344,22.98047 -1.38482,2.83263 -3.10743,5.54891 0,9.0918 2.05559,2.34365 7.726,2.79411 13.13282,3.41016 2.65747,4.69138 7.52078,4.21749 12.12109,4.86132 5.53425,-0.0635 11.44995,0.423 14.14258,-1.83203 2.08112,-1.7429 1.37865,-4.65024 -0.125,-5.80859 -6.84613,-6.26971 -13.2094,-12.76545 -17.55274,-20.20313 l -0.63086,-7.44921 -1.51562,0.3789 v -5.42969 l -2.9043,-1.64062 c 0.63278,-4.48603 1.02482,-8.99607 5.30469,-13.13281 0.34257,-3.80615 0.44886,-7.66732 2.90234,-10.98633 -0.24512,-6.75707 1.96729,-13.65685 4.54688,-20.58008 l 1.38867,-34.09375 2.27344,-0.37891 2.65039,-4.79882 -2.14649,-5.68164 c -5.43111,1.38078 -3.02969,-19.95053 -4.54492,-29.92579 l -3.78906,-4.54492 -0.63086,-11.49023 5.05078,4.04101 -1.38867,-26.39062 c 4.15124,3.14142 9.65952,2.35528 13.89062,-1.89453 6.05113,-6.07789 4.04764,-15.61797 0.37696,-23.35938 -4.06541,-8.57387 -6.48078,-19.3337 -7.57618,-30.81054 -0.77798,-8.15138 -3.94559,-15.63311 -17.29882,-20.45508 l 6.4414,-7.19727 c -5.30816,-6.89785 -13.80703,-12.37396 -23.61328,-13.38476 l 0.12696,-6.06055 c 1.89762,-1.607 2.77059,-2.59632 3.91992,-6.34765 1.08839,-3.55246 -1.53158,-4.58867 -2.91016,-4.13282 l -1.00976,-9.09179 c 1.60653,-1.65312 4.04246,-1.4426 -0.12696,-6.12305 0.48016,-0.74676 2.01849,-1.54462 -1.26172,-3.34766 -1.36885,-0.75242 -4.00284,-0.85026 -3.41015,-2.14648 0.88366,-1.93259 -0.21028,-2.43743 -3.03125,-2.27149 l -4.29297,0.25196 c -1.60619,0.0945 -0.23104,-1.42682 0.12695,-2.39844 0.29277,-0.7946 0.15781,-1.23391 -0.35547,-1.25391 z M 75.300578,327.37361 c 1.73361,1.32836 1.71524,1.55599 1.58008,5.23828 -0.11224,3.05786 -1.71889,3.63359 -3.47266,4.23046 0.003,-3.28249 0.2279,-6.51868 1.89258,-9.46874 z"
       style="fill:url(#linearGradient1521);fill-opacity:1;stroke:#ff4655;stroke-width:2;stroke-linecap:butt;stroke-linejoin:miter;stroke-miterlimit:4;stroke-dasharray:none;stroke-opacity:1" />
  </g>
</svg>
