<?xml version="1.0" encoding="UTF-8" standalone="no"?>
<svg
   xmlns:dc="http://purl.org/dc/elements/1.1/"
   xmlns:cc="http://creativecommons.org/ns#"
   xmlns:rdf="http://www.w3.org/1999/02/22-rdf-syntax-ns#"
   xmlns:svg="http://www.w3.org/2000/svg"
   xmlns="http://www.w3.org/2000/svg"
   xmlns:xlink="http://www.w3.org/1999/xlink"
   id="svg8"
   version="1.1"
   viewBox="0 0 200 400"
   height="400"
   width="200">
  <defs
     id="defs2">
    <linearGradient
       id="linearGradient1565">
      <stop
         id="stop1561"
         offset="0"
         style="stop-color:#ff4655;stop-opacity:0" />
      <stop
         id="stop1563"
         offset="1"
         style="stop-color:#ff4655;stop-opacity:0.58666664" />
    </linearGradient>
    <linearGradient
       gradientUnits="userSpaceOnUse"
       y2="0.32335073"
       x2="105.56938"
       y1="398.83188"
       x1="105.56938"
       id="linearGradient1567"
       xlink:href="#linearGradient1565" />
  </defs>
  <metadata
     id="metadata5">
    <rdf:RDF>
      <cc:Work
         rdf:about="">
        <dc:format>image/svg+xml</dc:format>
        <dc:type
           rdf:resource="http://purl.org/dc/dcmitype/StillImage" />
        <dc:title></dc:title>
      </cc:Work>
    </rdf:RDF>
  </metadata>
  <g
     transform="translate(0,-191.16665)"
     id="layer1">
    <path
       id="path1556"
       transform="translate(0,191.16665)"
       d="m 97.626953,35.324219 c -1.029606,0.01368 -2.055641,0.3401 -2.097656,0.9375 -9.171031,-0.0712 -12.891855,2.687997 -13.580078,7.023437 -7.482438,-0.72513 -14.609365,-2.80102 -21.541016,-5.61914 L 58.066406,39.65625 C 53.117592,37.21295 47.978499,35.992708 42.261719,38.486328 l -5.033203,4.798828 -4.449219,15.570313 20.136719,21.77539 8.896484,1.990235 3.279297,5.970703 4.261719,0.738281 c -12.22411,8.35786 -11.404191,15.137462 -8.125,27.943362 l -6.908204,0.11718 -3.511718,9.36719 0.117187,11.70703 6.205078,0.23438 c -1.174249,7.3331 -3.974853,13.70377 -7.755859,19.52148 -0.75051,9.66445 -1.588404,19.16368 -4.888672,28.82813 -2.572169,3.7503 -3.093383,8.13039 -2.808594,12.75976 -1.831146,4.17552 -3.05916,8.35183 -2.693359,12.52735 -1.333779,3.0225 -1.901623,6.41817 -0.585937,9.01367 0.877388,8.96855 2.063084,15.86027 4.449218,18.73242 2.095065,2.5218 3.050289,-0.21125 2.927735,-1.52344 l 2.396484,2.70703 c 1.19032,1.34357 3.014133,-0.78366 2.050781,-2.0039 l -5.267578,-6.67188 5.736328,5.15039 c 0.938567,0.8428 3.37699,-0.8537 1.75586,-2.81054 -0.642473,-0.77552 -4.332032,-4.91602 -4.332032,-4.91602 0,0 1.670384,1.72607 2.576172,2.3418 1.299994,0.8837 2.37886,-1.60565 1.169922,-2.45899 -6.035973,-4.26057 -2.88679,-11.10937 -2.863281,-11.10937 0.629216,1.54846 1.1135,3.1701 2.513672,3.61719 l -0.585938,2.34179 5.853516,4.21289 c -2.625512,7.86506 -4.09722,16.07329 -3.746094,24.82032 l -9.248047,-2.3418 -2.927734,5.85352 10.888672,3.27734 1.052734,4.44922 c -3.68405,11.99605 -10.880086,22.86245 -9.013672,36.64258 -1.040347,4.38475 -5.880021,8.45245 -2.224609,13.22851 l -3.279297,0.23438 0.234375,6.79101 2.458984,-0.11718 -2.576171,5.50195 2.693359,1.17187 -2.107422,8.54492 -1.404297,-0.46874 0.117188,-2.92579 -7.142578,-1.63867 0.585937,5.15039 c -8.868604,2.46893 -4.095532,9.0903 -3.628906,14.40039 -3.712476,12.03654 -11.76352,17.27539 -19.3164065,22.47657 -7.30080893,5.02759 -3.8471037,9.22704 -0.5859375,10.30273 10.63808,3.50896 20.033762,2.85948 24.117187,0 5.775673,-4.0445 10.548121,-5.40802 16.388672,-6.79102 1.639493,-2.50287 2.821177,-5.20177 1.40625,-9.01367 l -0.234375,-15.92187 4.449219,-6.90625 c 1.385626,-2.15137 2.124655,-5.44383 -1.289062,-6.43946 -0.304341,-4.21339 1.077708,-6.98197 3.863281,-8.54687 2.097848,-5.06499 4.613233,-9.79622 8.898437,-13.11133 1.542306,-5.41107 4.080314,-10.60074 7.609375,-15.57031 2.347082,-21.19486 -3.104819,-24.85895 6.205079,-38.39844 4.12057,-5.99259 7.127225,-12.5919 8.896484,-19.78516 6.315579,-13.33165 13.186138,-23.78285 20.605468,-31.375 2.35762,20.97242 2.93802,42.62406 12.4082,60.87696 -3.87984,8.44638 -7.49504,16.94175 2.22461,27.97851 v 8.42969 l 4.91797,5.50195 c -0.74807,2.42277 -0.40669,4.30013 1.05274,5.61915 -0.83125,2.94163 -0.59721,5.24434 1.87304,6.20507 l -0.23437,7.96094 c -4.94927,1.3714 -6.7517,3.90943 -5.25977,6.69336 l 5.25977,9.81445 -0.93555,17.20899 c -1.33735,2.63582 -1.51436,4.77467 0.23438,6.08789 l -0.46875,7.96094 c 0.21427,5.52003 23.31626,5.10615 24,0 0.31488,-3.44058 0.53063,-5.42643 -2.10743,-8.42969 0.30171,-2.77549 -0.40572,-5.01279 -1.75781,-6.90625 v -15.80469 c -1.2513,-1.12889 -1.56306,-4.45788 -0.76367,-6.94141 L 149.5,335.96289 c -1.53851,-2.07991 -3.66281,-1.81795 -5.85352,-1.28906 v -7.375 c 3.2554,-0.90845 3.66083,-2.71032 1.28711,-5.38477 -0.32407,-1.18728 0.17706,-2.05766 1.28711,-2.69336 l 6.32227,1.52149 -0.23438,-7.8418 -4.44921,-0.11719 c 1.63931,-4.91074 1.25503,-11.79588 -0.58399,-17.21093 0.11707,-0.58535 3.98047,-8.07813 3.98047,-8.07813 -3.19403,-5.7171 -5.60965,-12.12961 -5.85352,-20.48633 l 2.10743,-3.6289 c -3.70661,-3.78219 -0.92229,-6.19679 1.05273,-8.78125 -4.77287,-23.97203 -0.92361,-57.2325 -5.9707,-69.89063 3.7606,-2.68295 7.09434,-5.41954 9.13086,-8.66406 1.46827,-2.33921 1.42885,-2.77572 0,-5.0332 l -9.59961,-11.94141 c -1.50982,-1.87807 -3.71331,-1.32158 -5.26758,-0.46875 l -3.74609,-3.74609 -7.49219,8.19531 -7.375,-5.85352 -1.40625,0.64453 c -2.85186,-2.84957 -5.29986,-6.06871 -5.03321,-10.00976 l 3.51172,-2.22461 -1.75586,-3.21875 c -0.10127,-9.47715 3.36723,-15.84691 8.07813,-21.13281 l 0.23437,-4.56446 c 2.82254,-5.47994 36.60035,-2.47889 54.90625,-3.6289 6.85499,-0.43065 12.01616,-3.88753 11.00391,-9.13282 l -1.28711,-6.671871 11.70598,1.872813 0.001,-29.618906 -29.44726,-11.597657 c -1.4328,-4.69705 -3.34971,-6.378095 -5.20703,-8.421875 l -2.45704,-0.117187 c -2.69812,-3.31351 -5.91501,-4.084665 -9.71679,-1.990235 -11.89437,4.26349 -9.48352,5.264678 -10.53711,7.492188 -1.85739,-0.5011 -3.48022,-3.81477 -5.73633,0.46875 l -16.27344,-0.703125 0.46875,-4.564453 -6.43945,-3.16211 c -0.71808,-5.47156 -1.89999,-10.697853 -13.111329,-10.652343 -0.0541,-0.652105 -1.087582,-0.951177 -2.117188,-0.9375 z M 69.785156,150.33203 c 3.124207,1.75565 4.971419,7.15172 5.132813,14.69336 0.0539,2.5188 -1.069974,3.61862 -4.097657,4.71875 -2.264116,2.86372 -0.70676,9.59289 0.826172,9.22852 l -0.123046,13.99023 c 0,0 -3.5595,5.62907 -3.890626,6.04297 -0.331125,0.41391 -0.99414,-0.82617 -0.99414,-0.82617 l -3.806641,6.70508 1.572266,1.49023 c 0,0 -5.381312,12.74777 -5.546875,14.07227 -0.165563,1.3245 -2.814453,-3.47657 -2.814453,-3.47657 l -2.566407,2.31641 c -1.114266,-2.03373 -1.104705,-3.91181 -0.455078,-6.16602 0.514643,-1.4673 0.143623,-3.64595 0.04102,-5.42187 1.425722,-4.77828 1.025419,-11.83944 1.242188,-18.12891 5.777454,-18.61436 11.228384,-19.49149 15.480468,-39.23828 z"
       style="fill:url(#linearGradient1567);fill-opacity:1;stroke:#ff4655;stroke-width:2;stroke-linecap:butt;stroke-linejoin:miter;stroke-miterlimit:4;stroke-dasharray:none;stroke-opacity:1" />
  </g>
</svg>
