<?xml version="1.0" encoding="UTF-8" standalone="no"?>
<svg
   xmlns:dc="http://purl.org/dc/elements/1.1/"
   xmlns:cc="http://creativecommons.org/ns#"
   xmlns:rdf="http://www.w3.org/1999/02/22-rdf-syntax-ns#"
   xmlns:svg="http://www.w3.org/2000/svg"
   xmlns="http://www.w3.org/2000/svg"
   xmlns:xlink="http://www.w3.org/1999/xlink"
   id="svg8"
   version="1.1"
   viewBox="0 0 200 400"
   height="400"
   width="200">
  <defs
     id="defs2">
    <linearGradient
       id="linearGradient1614">
      <stop
         id="stop1610"
         offset="0"
         style="stop-color:#ff4655;stop-opacity:0" />
      <stop
         id="stop1612"
         offset="1"
         style="stop-color:#ff4655;stop-opacity:0.58823532" />
    </linearGradient>
    <linearGradient
       gradientTransform="translate(1.4839015,200.10229)"
       gradientUnits="userSpaceOnUse"
       y2="-0.38165414"
       x2="105.83188"
       y1="400.93655"
       x1="105.83188"
       id="linearGradient1608"
       xlink:href="#linearGradient1614" />
  </defs>
  <metadata
     id="metadata5">
    <rdf:RDF>
      <cc:Work
         rdf:about="">
        <dc:format>image/svg+xml</dc:format>
        <dc:type
           rdf:resource="http://purl.org/dc/dcmitype/StillImage" />
        <dc:title></dc:title>
      </cc:Work>
    </rdf:RDF>
  </metadata>
  <g
     transform="translate(0,-191.16665)"
     id="layer1">
    <path
       id="path1595"
       d="m 56.837417,197.18432 c -2.225471,-0.0574 -4.043911,1.04058 -4.691407,2.5039 l 3.890625,12.00391 -5.132812,0.66211 -1.40625,2.15234 1.076172,2.56641 1.738281,0.91016 11.091797,31.29101 -1.324219,9.02344 c -4.607121,0.53497 -5.523569,1.26673 -5.613281,2.73633 -4.471364,2.43895 -11.219527,2.03044 -18.144531,1.40234 l -1.65625,3.72656 0.332031,8.52539 2.896484,0.82813 0.498047,-0.74609 19.783203,-2.81446 v 1.65625 l -1.572265,-0.082 -0.580079,1.40625 0.414063,0.99414 4.884766,-0.41406 2.318359,5.13281 -1.738281,6.29102 c -1.293375,0.14674 -2.758122,0.10316 -2.484375,2.81445 0.173073,1.71417 -0.148503,2.94311 -1.324219,3.55859 l 1.324219,7.86524 -1.738282,2.73242 4.800782,12.83008 3.560547,-0.41406 c 0,0 1.478835,18.01728 5.876953,25.58008 2.091164,3.59587 7.448747,7.37793 9.189453,8.44336 2.44921,1.49908 5.944228,0.82918 7.533203,-2.06836 l 9.849609,-17.96485 c 6.59873,13.19124 7.44671,24.28232 2.56641,33.2793 l -0.91016,2.64844 c -0.21375,3.31826 -2.596392,4.4673 -4.470703,6.125 l -1.820312,11.3418 1.986328,1.65624 c -16.716434,25.2159 -16.25461,43.01572 -19.410156,63.50586 l -5.533204,8.63672 -1.736328,11.81055 c -7.955696,7.0456 -8.692933,22.92229 -13.25,34.54883 -3.740803,9.54399 -7.137408,19.26007 -12.99414,27.74609 l -3.746094,1.28711 -5.501953,17.21094 -6.205078,6.67187 -11.123047,8.54688 -1.990234,2.80859 -1.28711,0.11719 c -0.826957,3.32956 -3.683599,4.18032 -6.4394525,5.15234 l 9.2499995,0.58399 c 10.025826,3.66724 18.781004,1.82772 27.511719,-0.11719 l 4.40039,-6.9707 0.08398,1.61328 4.59375,2.56641 c 0,0 5.215218,-1.32467 5.173828,-1.49024 -0.04139,-0.16556 0.455078,-8.48437 0.455078,-8.48437 l 1.283203,-11.29883 c -0.575234,-5.45337 -3.719662,-11.61593 1.613281,-15.43946 l -1.490234,-5.38086 c 4.595928,-14.79845 14.226349,-26.24061 24.007813,-37.58203 4.359984,-5.45079 8.129825,-11.81549 7.699218,-24.66992 l 2.234375,-4.13867 c 11.248813,13.46713 14.514833,22.81499 12.085943,29.22266 l 9.51953,20.77734 10.51367,-107.5332 4.05664,0.91015 c 3.15879,14.07369 8.01697,26.84049 12.16797,38.99024 3.2265,9.44379 1.73365,24.03355 -1.73828,37.08593 2.44089,18.45403 11.0222,28.85162 0.49805,64.32227 l 0.24804,6.04297 -3.97461,8.11133 1.07618,1.90429 -4.71875,4.88477 -2.56641,6.95313 -1.1582,1.65624 c 0.429,2.01821 2.18752,3.34116 4.30468,3.97266 2.41146,0.71928 4.64328,1.83921 6.125,4.63672 1.91808,-1.7579 5.21896,-3.48121 9.81055,-3.70508 4.56438,-0.22254 7.54545,-0.62401 9.3125,-2.91797 v -4.55273 l -0.41406,-5.54688 0.99414,-1.73828 c -0.6947,-4.6482 -1.38309,-9.29299 -2.40039,-14.15625 0.608,-1.80436 1.00181,-3.24974 1.9043,-5.54492 -2.47887,-5.3532 -1.85991,-10.70735 -1.82227,-16.06055 1.07843,-11.43096 3.52807,-22.31572 6.95313,-33.19531 l 4.05664,-16.22461 c -1.45276,-5.04967 -2.70514,-10.09877 -3.22852,-15.14844 -0.37932,-3.78035 -1.22843,-7.56144 -0.91016,-11.34179 l -0.49609,-7.53321 1.40625,-2.89648 -1.07617,-3.80859 0.084,-1.32422 1.57227,-2.65039 -0.99414,-3.64063 1.07617,-8.19531 1.07617,-5.05078 1.73828,-1.1582 -0.16406,-7.20313 c 1.63654,-3.05349 5.06059,-6.22627 6.55273,-5.38867 1.20259,0.67506 1.89505,2.90461 2.15235,5.71289 0.24997,2.7282 0.40111,4.67541 1.375,6.67969 -1.18853,-0.16704 -2.32649,-0.0818 -3.35938,0.52929 -1.61356,-1.18363 -3.22628,-2.23143 -4.83984,-0.96484 2.39164,2.93705 2.67864,3.30698 4.41406,4.27539 0.86771,0.48421 5.66801,-0.87209 6.91406,-0.18945 1.24604,0.68264 0.27748,1.91734 -0.13086,4.08203 -0.5278,2.79801 -0.18996,3.88609 0.66211,4.88281 l -0.74414,2.56641 c 1.6015,-1.34944 3.1551,-2.69399 3.22852,-3.89063 0.17261,-3.08253 0.80372,-5.90281 2.06836,-8.36133 l -1.07617,-3.47656 c 1.55707,-3.49256 2.43945,-5.29464 3.06445,-6.45703 -2.49294,-9.3913 -0.70693,-14.00428 -4.14063,-24.17187 -1.09138,-12.80321 -2.99873,-25.73235 -5.95898,-38.82422 -4.40145,-12.81838 -6.28924,-9.25269 -9.10547,-17.37891 -4.73222,-17.8864 -0.70179,-22.59949 -4.14062,-36.09766 -0.57356,-2.25135 -2.56641,-3.97461 -2.56641,-3.97461 l -1.73828,-4.13867 c -12.50644,-10.67645 -12.59993,-21.59931 -16.14063,-33.19531 -2.90544,-9.51549 -3.81811,-14.71343 -13.57617,-17.79688 l 1.48828,-1.82226 c -13.00099,0.94697 -19.6911,6.43325 -20.61132,12.33398 -0.60719,3.89349 0.81147,6.69552 1.32421,9.93555 -2.21392,-0.33806 -1.50692,1.58519 -0.91015,3.64062 2.5063,8.63232 -2.31768,16.71313 -7.36719,24.75196 -10.015112,0.10048 -11.886855,5.03273 -12.832035,10.51367 l -1.490234,-5.04883 1.076172,-3.89063 -11.009766,-22.93164 -0.08203,-3.64257 1.240234,-0.99219 -5.46289,-14.23828 -2.484375,-0.25 -9.683594,-28.80664 0.992187,-1.82227 -0.74414,-1.73828 -4.222656,-0.16602 -4.679688,-13.91211 c -0.332325,-0.0577 -0.658638,-0.0894 -0.976562,-0.0976 z m 22.55664,104.27149 1.638672,2.39843 6.439453,-0.0586 2.107422,6.9668 c -2.405757,2.90115 -4.53389,6.05938 -4.859375,10.88672 -2.796397,-2.8023 -5.44002,-7.76767 -7.199219,-12.40821 -1.137186,-2.99975 -0.296649,-6.67101 1.873047,-7.78515 z m 72.171873,9.4082 c 0.69161,7.22624 1.52234,12.56055 5.05078,19.61914 3.4866,6.97489 2.5453,11.37752 6.04297,22.59961 1.23427,3.96008 14.13674,26.37969 14.23828,38.6582 -4.24419,1.86575 -5.15151,6.75942 -6.12695,11.58985 l 0.25,-7.94727 -1.24219,-1.32422 0.082,-8.19531 -12.25195,-22.84766 -2.81445,-0.33203 c -5.87474,-2.97564 -13.38836,-15.87687 -13.41016,-22.68164 -0.02,-6.25823 10.32462,-10.74261 10.18164,-29.13867 z"
       style="fill:url(#linearGradient1608);fill-opacity:1;stroke:#ff4655;stroke-width:2;stroke-linecap:butt;stroke-linejoin:miter;stroke-miterlimit:4;stroke-dasharray:none;stroke-opacity:1" />
  </g>
</svg>
