<?xml version="1.0" encoding="UTF-8" standalone="no"?>
<svg
   xmlns:dc="http://purl.org/dc/elements/1.1/"
   xmlns:cc="http://creativecommons.org/ns#"
   xmlns:rdf="http://www.w3.org/1999/02/22-rdf-syntax-ns#"
   xmlns:svg="http://www.w3.org/2000/svg"
   xmlns="http://www.w3.org/2000/svg"
   xmlns:xlink="http://www.w3.org/1999/xlink"
   id="svg8"
   version="1.1"
   viewBox="0 0 200 400"
   height="400"
   width="200">
  <defs
     id="defs2">
    <linearGradient
       id="linearGradient1633">
      <stop
         id="stop1629"
         offset="0"
         style="stop-color:#ff4655;stop-opacity:0" />
      <stop
         id="stop1631"
         offset="1"
         style="stop-color:#ff4655;stop-opacity:0.58666664" />
    </linearGradient>
    <linearGradient
       gradientTransform="translate(-1.8696442,-5.8941074)"
       gradientUnits="userSpaceOnUse"
       y2="190.76936"
       x2="103.49168"
       y1="593.08728"
       x1="103.49168"
       id="linearGradient1635"
       xlink:href="#linearGradient1633" />
  </defs>
  <metadata
     id="metadata5">
    <rdf:RDF>
      <cc:Work
         rdf:about="">
        <dc:format>image/svg+xml</dc:format>
        <dc:type
           rdf:resource="http://purl.org/dc/dcmitype/StillImage" />
        <dc:title></dc:title>
      </cc:Work>
    </rdf:RDF>
  </metadata>
  <g
     transform="translate(0,-191.16665)"
     id="layer1">
    <path
       id="path1627"
       d="m 107.43029,542.66433 c 6.28879,3.38979 9.61742,6.73016 18.84577,6.34993 10.54977,-0.43467 17.16966,-1.44006 14.07284,-4.13907 -0.34398,-5.90623 -5.70247,-6.09567 -9.60265,-7.28477 -26.52616,-8.08736 -27.92644,-27.92401 -20.69536,-55.13245 l 4.39502,-0.86697 0.41463,-12.69112 -3.31958,-2.9982 c 3.01302,-16.6741 6.46625,-33.21568 15.06622,-48.01325 3.37806,-5.81247 5.65364,-12.19809 6.12583,-19.53642 2.47588,2.98173 6.19182,2.9908 7.61589,-0.49669 l 7.94702,12.41722 -18.04635,14.40397 4.80132,6.12583 18.37748,-14.23841 7.94702,1.3245 15.39735,31.45696 4.75197,-4.81051 4.18843,6.30057 2.65819,-2.00684 -4.35312,-7.03054 2.52275,-2.71758 -3.47683,-5.96027 1.8212,-1.49006 -4.80133,-4.63577 -22.68212,-44.53642 2.48345,-2.48344 -11.58941,-9.93378 -15.06622,-31.12583 c -1.62618,-3.35957 -3.27382,-9.63627 -7.45033,-6.29139 l -4.63576,-11.75496 c 4.41,-6.12299 9.23403,-12.08397 -0.33113,-23.6755 0.93246,-10.13631 -0.27222,-15.2457 -13.90729,-22.01987 -1.283,-0.63742 -2.14027,-1.98217 -2.15231,-8.11258 3.14716,-2.78893 5.73195,-5.68814 6.29139,-10.09934 0.96602,-0.88554 2.94264,-1.69276 2.45503,-3.88657 2.50606,2.25754 3.23031,5.40073 4.66417,8.19121 0.70253,-13.87309 0.11764,-24.60198 -7.86008,-31.75795 1.84927,-2.77011 1.73867,-8.77799 -2.23926,-11.95066 -2.50266,-1.99604 -5.05174,-1.37012 -8.08417,-1.02179 -0.16302,-3.83145 -9.42481,-4.30523 -15.09463,2.01517 -15.12003,16.85493 -16.67059,37.08855 -16.55629,57.61589 l -4.80133,-0.33113 -10.76159,22.68212 3.47682,0.82782 -3.31126,4.30463 2.31788,0.66225 c -4.08633,5.13201 -6.95118,10.4861 -8.609274,16.05961 -5.00588,6.933 -8.417,15.41398 -8.52649,24.42053 -0.14758,12.14095 -3.02584,19.69809 -5.87748,29.22185 -1.99054,6.6479 -2.08043,8.82641 -1.65563,14.23841 0.34404,4.3831 0.21413,7.30523 -0.66225,11.09272 -1.05332,4.55216 -1.76144,7.49416 -2.15232,11.42384 -0.38862,3.90699 1.417,2.59063 3.66308,-0.18626 l -0.0207,5.31871 c -0.008,2.10431 2.99884,1.3197 3.11162,-2.07452 1.47123,0.91657 2.02768,-0.31022 2.08292,-2.47847 l -2.21441,-9.85098 2.48345,5.46357 c 0.67003,1.47406 2.8501,-0.0402 1.53683,-3.3322 -0.82847,-2.07673 -2.79318,-3.77472 -2.36465,-6.27045 0.61664,-3.59126 2.27165,-5.97427 3.9936,-8.47298 0.0995,2.00292 0.41952,4.00584 1.2192,6.00876 1.22852,3.07705 4.33987,2.9096 3.5804,-0.36871 -0.7221,-3.11698 -1.79969,-6.17354 -0.84618,-9.25316 0.71248,-2.30114 0.69684,-4.76891 -0.66225,-7.45033 3.79147,-8.20634 8.550014,-15.62143 10.099344,-25.66225 2.06766,-5.62733 5.14637,-10.37 5.62914,-17.38411 1.24723,-1.67332 2.62982,-2.96761 2.81457,-7.61589 1.27485,0.29599 2.61074,1.05577 2.81457,-6.78808 2.10286,-4.66486 3.45482,-9.85535 7.61589,-13.07947 3.21236,11.67744 2.72901,21.93243 1.15894,31.45695 -0.54185,3.28702 1.05847,5.50651 2.64901,5.96027 l -3.31126,8.11258 -3.97351,0.16556 c -6.87215,0.28634 -11.05441,5.75044 -11.42384,11.25828 -0.36156,5.3904 1.46203,6.47527 3.31126,7.78146 -8.32325,-1.19437 -11.754,2.8314 -10.76159,10.34768 -4.389034,4.45472 -2.689394,13.84424 4.80132,14.15563 -3.34812,7.43717 -7.556444,14.67701 -7.615894,23.17881 l -0.16557,23.67549 c -2.42421,8.8951 -5.60422,16.84132 -9.93377,23.34437 -3.98783,0.20711 -6.10042,4.00842 -7.45033,9.27153 l -5.13245,7.78145 3.14569,2.48345 c -2.77034,14.66921 -4.7313,32.72306 -9.76821,37.9139 l 1.3245,4.4702 c -2.67263,0.87673 -3.65876,3.77725 -4.13907,7.28477 0.64741,12.83115 -0.7573,22.10629 -3.71928,26.55864 0,8.7632 22.27065,7.46994 22.27065,0.26255 -3.98657,-2.17012 -3.95992,-16.2117 -3.48514,-25.99337 l 2.81457,-2.15232 c -0.95031,-11.66441 2.87452,-25.18582 18.708614,-43.37749 0.88654,-5.68393 0.65763,-11.4918 4.13907,-16.88741 -1.04515,-2.54034 0.19007,-6.22086 4.13907,-11.25828 l 24.00662,0.33113 9.93378,-9.10596 -0.33113,6.78807 -3.31126,0.16557 -5.62913,16.39073 2.48344,1.82119 c 4.14022,17.60921 7.13719,34.81011 2.64901,49.33775 l -0.96498,14.17987 c 0,4.88042 15.31963,4.90165 18.70862,-0.33113 z"
       style="fill:url(#linearGradient1635);fill-opacity:1;stroke:#ff4655;stroke-width:2;stroke-linecap:butt;stroke-linejoin:miter;stroke-miterlimit:4;stroke-dasharray:none;stroke-opacity:1" />
  </g>
</svg>
