<?xml version="1.0" encoding="UTF-8" standalone="no"?>
<svg
   xmlns:dc="http://purl.org/dc/elements/1.1/"
   xmlns:cc="http://creativecommons.org/ns#"
   xmlns:rdf="http://www.w3.org/1999/02/22-rdf-syntax-ns#"
   xmlns:svg="http://www.w3.org/2000/svg"
   xmlns="http://www.w3.org/2000/svg"
   xmlns:xlink="http://www.w3.org/1999/xlink"
   id="svg8"
   version="1.1"
   viewBox="0 0 300 100"
   height="100"
   width="300">
  <defs
     id="defs2">
    <linearGradient
       id="linearGradient1092">
      <stop
         id="stop1088"
         offset="0"
         style="stop-color:#ff4655;stop-opacity:0" />
      <stop
         id="stop1090"
         offset="1"
         style="stop-color:#ff4655;stop-opacity:0.58666664" />
    </linearGradient>
    <linearGradient
       gradientTransform="translate(-0.17041455,492.47169)"
       gradientUnits="userSpaceOnUse"
       y2="-0.2068391"
       x2="166.38609"
       y1="99.810417"
       x1="166.38609"
       id="linearGradient1094"
       xlink:href="#linearGradient1092" />
  </defs>
  <metadata
     id="metadata5">
    <rdf:RDF>
      <cc:Work
         rdf:about="">
        <dc:format>image/svg+xml</dc:format>
        <dc:type
           rdf:resource="http://purl.org/dc/dcmitype/StillImage" />
        <dc:title></dc:title>
      </cc:Work>
    </rdf:RDF>
  </metadata>
  <g
     transform="translate(0,-491.16665)"
     id="layer1">
    <path
       id="path1079"
       d="m 97.431147,510.96778 -3.923828,3.92578 c -7.163954,0.0756 -1.240116,18.00977 1.91211,18.00977 h 47.191411 l 5.23242,6.94336 h 7.64649 c 6.90605,17.30972 16.86742,7.32187 25.15625,6.8418 2.7268,-0.15793 2.65326,2.84414 3.03515,5.37109 0.51042,3.37738 3.8752,4.01007 3.82422,4.58984 -0.063,0.71685 0.54597,6.20861 2.79297,8.28711 -2.61218,6.03332 3.80022,7.17474 8.15625,6.00196 l 7.84961,-2.11328 c 3.79771,-1.02246 4.34266,-4.03891 2.7168,-10.16211 -1.6512,-6.21864 -5.78026,-10.81217 -9.45899,-15.69727 -2.71304,-3.60273 -6.50438,-6.63916 1.3086,-13.08008 -7.83735,-4.53903 -14.82457,-9.92796 -18.61524,-18.51367 l -8.7539,1.60938 h -68.72461 v -2.01368 z m 76.138673,28.55274 c 3.29797,0 2.81466,8.13281 -1.85742,8.13281 h -6.52734 c -3.4236,0 -5.83756,-8.08203 -0.90235,-8.08203 h 5.22071 c 1.52286,0 0.8759,4.03411 -0.25195,5.67383 3.32122,0 2.01268,-5.72461 4.31835,-5.72461 z"
       style="fill:url(#linearGradient1094);fill-opacity:1;stroke:#ff4655;stroke-width:2;stroke-linecap:butt;stroke-linejoin:miter;stroke-miterlimit:4;stroke-dasharray:none;stroke-opacity:1" />
  </g>
</svg>
