<?xml version="1.0" encoding="UTF-8" standalone="no"?>
<svg
   xmlns:dc="http://purl.org/dc/elements/1.1/"
   xmlns:cc="http://creativecommons.org/ns#"
   xmlns:rdf="http://www.w3.org/1999/02/22-rdf-syntax-ns#"
   xmlns:svg="http://www.w3.org/2000/svg"
   xmlns="http://www.w3.org/2000/svg"
   xmlns:xlink="http://www.w3.org/1999/xlink"
   id="svg8"
   version="1.1"
   viewBox="0 0 200 400"
   height="400"
   width="200">
  <defs
     id="defs2">
    <linearGradient
       id="linearGradient1659">
      <stop
         id="stop1655"
         offset="0"
         style="stop-color:#ff4655;stop-opacity:0.06666667" />
      <stop
         id="stop1657"
         offset="1"
         style="stop-color:#ff4655;stop-opacity:0.58666664" />
    </linearGradient>
    <linearGradient
       gradientTransform="translate(-1.0413922,169.97405)"
       gradientUnits="userSpaceOnUse"
       y2="21.830257"
       x2="104.5976"
       y1="420.6131"
       x1="104.5976"
       id="linearGradient1661"
       xlink:href="#linearGradient1659" />
  </defs>
  <metadata
     id="metadata5">
    <rdf:RDF>
      <cc:Work
         rdf:about="">
        <dc:format>image/svg+xml</dc:format>
        <dc:type
           rdf:resource="http://purl.org/dc/dcmitype/StillImage" />
        <dc:title></dc:title>
      </cc:Work>
    </rdf:RDF>
  </metadata>
  <g
     transform="translate(0,-191.16665)"
     id="layer1">
    <path
       id="path1648"
       d="m 82.108999,217.33538 c -2.716628,0.0447 -4.499184,0.60269 -4.966797,1.98633 -6.181126,-0.49975 -11.526036,4.47311 -11.052735,7.41211 0.474005,2.94337 -0.25368,4.69163 -1.265625,5.94922 0.766183,1.79274 1.479089,3.63253 1.021485,6.49609 -2.514514,1.44404 -0.738861,4.44663 -0.310547,6.62305 l -0.01953,5.79492 c -0.952872,3.43713 -3.306496,5.19265 -5.794922,6.78711 l -5.462891,-7.78125 H 41.177358 l 6.457031,8.60937 H 36.706655 l 8.019531,4.63086 -2.886719,2.6543 3.642579,6.95312 -7.615235,-1.49023 5.958985,7.94726 -2.814454,2.64844 -14.90039,-18.54296 c -7.216461,2.50826 -6.960624,7.80825 -9.767578,11.58984 l -11.9218755,16.06054 6.2929685,8.44336 c -2.3688695,3.81005 -3.6250248,8.17738 -3.8085935,13.08008 -4.0594558,6.12241 -2.3504253,10.22423 1.558594,13.20508 3.2202375,2.45561 8.3930715,1.53587 13.3613285,2.15234 3.871518,5.3205 7.737059,10.87294 14.472656,14.07227 3.66388,-0.86403 7.315857,-1.79559 10.673828,-4.26563 l -0.166016,4.80274 h -5.794922 l 0.66211,13.57617 -1.034937,-0.001 -0.61936,-13.24459 -3.808594,0.16601 0.289592,20.11494 -0.911669,0.001 -0.206048,-18.95778 -2.980469,0.66211 v 18.875 l -6.787109,1.65625 v 7.61524 l 3.310547,0.99414 -0.496094,45.03125 5.794922,6.78906 c -2.88475,3.42572 -1.3621,7.6779 0.992187,12.08594 -2.485385,3.94516 -1.072657,9.18846 0,14.73437 4.582673,23.69355 17.448271,49.94828 1.324219,68.21289 l 1.65625,2.48243 c -9.83526,3.42413 -10.55116,12.46828 -20.363281,11.58984 -11.7626002,7.00918 -10.4909521,15.43376 0.164062,14.32227 l 23.013672,-2.40039 c -0.09155,-3.00573 0.574394,-5.05768 4.636719,-2.81641 5.756182,1.5334 11.792846,1.0042 18.210938,-2.31641 -0.401958,-5.67485 -0.608563,-11.3305 -3.144532,-17.21875 3.633029,-4.50262 4.944147,-8.68262 0.66211,-12.08593 -4.309933,-16.44127 4.549542,-30.4636 10.429687,-45.03321 l -7.615234,-23.50976 8.111328,-15.56446 c -2.551709,-11.6956 -2.338718,-22.90248 -1.158203,-33.93945 10.472976,8.05396 13.121177,20.80244 13.742187,34.76758 -1.034144,4.06947 -0.361143,6.43129 0.330078,8.77539 6.575503,6.15507 9.108649,10.44329 13.080076,15.39648 4.062054,29.54886 20.971704,34.63081 23.013674,70.19922 0.46519,6.30998 -2.82849,8.75557 -1.98828,15.72852 l 3.47852,-0.82813 c -1.86541,4.60849 -2.88982,10.38413 -7.45118,11.25977 -2.91182,2.51821 -2.84947,6.17982 -2.98046,9.76758 -0.0512,2.96097 4.16505,5.10835 12.66601,4.96679 10.43863,-0.17383 14.4113,-3.53833 14.32031,-5.96093 l 0.49805,-16.72071 2.48242,-1.98828 -0.82812,-11.42383 c -6.7768,-6.74675 -7.88904,-17.80863 -7.78125,-29.80078 3.62796,0.44491 7.15022,0.39602 10.09961,-2.31836 -2.52835,-14.1271 -3.87253,-28.14638 -3.97266,-42.05273 l -3.89062,0.16601 -2.56641,-16.39062 2.48242,-7.94727 -5.79492,-9.4375 -4.88281,0.16602 -1.65625,4.88476 -4.88477,-7.0371 0.49805,-16.22461 2.81445,-2.15235 -0.33203,-3.47656 51.16016,65.72852 -2.31836,2.64843 15.0664,18.70899 9.76758,-5.13282 -14.4043,-19.03906 -2.48242,0.33008 -57.61718,-74.33789 0.49804,-4.9668 8.11133,-2.81445 -7.2832,-8.27734 c 5.85175,-24.62646 5.50227,-37.3703 5.95898,-51.65625 l 3.14649,0.33203 c -4.15601,-8.815 -3.85575,-18.5884 -4.30469,-28.14649 -0.76737,-16.33776 -5.63661,-24.22291 -16.48828,-26.74218 1.06356,-2.34794 3.18549,-4.46173 0.26367,-7.69531 l 0.64062,-3.82618 c -1.14797,-1.23736 -1.88209,-2.66075 -6.93359,-2.13281 l -3.43555,-3.74023 -4.01367,3.24218 c -3.147003,-0.0485 -3.389226,-1.93052 -3.642578,-3.80664 1.147959,-5.3572 -0.08729,-11.31516 -0.576172,-17.26757 0.687899,-3.85632 -0.82731,-5.75854 -4.390625,-6.90625 0.327825,-2.44537 -0.990975,-4.54566 -6.253906,-4.45899 z m -40.103516,94.77539 c 3.070867,1.56325 2.802764,3.84176 2.896484,6.04297 l -10.429687,0.082 c 0,0 6.870951,-5.46275 7.533203,-6.125 z M 124.5758,436.98186 c 3.84056,2.78248 4.03227,7.83506 4.27343,19.4336 -1.87906,-3.78444 -3.90306,-7.45431 -7.31835,-10.00977 1.42784,-2.93478 2.55103,-6.02207 3.04492,-9.42383 z"
       style="fill:url(#linearGradient1661);fill-opacity:1;stroke:#ff4655;stroke-width:2;stroke-linecap:butt;stroke-linejoin:miter;stroke-miterlimit:4;stroke-dasharray:none;stroke-opacity:1" />
  </g>
</svg>
