<?xml version="1.0" encoding="UTF-8" standalone="no"?>
<svg
   xmlns:dc="http://purl.org/dc/elements/1.1/"
   xmlns:cc="http://creativecommons.org/ns#"
   xmlns:rdf="http://www.w3.org/1999/02/22-rdf-syntax-ns#"
   xmlns:svg="http://www.w3.org/2000/svg"
   xmlns="http://www.w3.org/2000/svg"
   xmlns:xlink="http://www.w3.org/1999/xlink"
   id="svg8"
   version="1.1"
   viewBox="0 0 400 400"
   height="400"
   width="400">
  <defs
     id="defs2">
    <linearGradient
       id="linearGradient979">
      <stop
         id="stop975"
         offset="0"
         style="stop-color:#ff4655;stop-opacity:0.00888889" />
      <stop
         id="stop977"
         offset="1"
         style="stop-color:#ff4655;stop-opacity:0.58666664" />
    </linearGradient>
    <linearGradient
       gradientUnits="userSpaceOnUse"
       y2="0.63471061"
       x2="206.04001"
       y1="398.28882"
       x1="206.04001"
       id="linearGradient981"
       xlink:href="#linearGradient979" />
  </defs>
  <metadata
     id="metadata5">
    <rdf:RDF>
      <cc:Work
         rdf:about="">
        <dc:format>image/svg+xml</dc:format>
        <dc:type
           rdf:resource="http://purl.org/dc/dcmitype/StillImage" />
        <dc:title></dc:title>
      </cc:Work>
    </rdf:RDF>
  </metadata>
  <g
     transform="translate(0,-191.16665)"
     id="layer1">
    <path
       id="path954"
       transform="translate(0,191.16665)"
       d="M 176.95312 22.050781 L 176.95312 99.921875 L 124.00977 99.921875 L 124.00977 68.896484 L 106.33203 68.896484 C 106.33203 68.896484 106.67374 79.082056 106.33203 78.884766 C 105.99032 78.687486 59.220703 78.884766 59.220703 78.884766 L 59.220703 98.773438 L 72.654297 98.773438 L 72.654297 118.83594 L 34.470703 118.83594 L 34.470703 94.972656 L 9.28125 94.972656 L 9.28125 184.5625 L 28.1875 184.5625 L 28.1875 209.625 L 22.5625 209.625 L 22.5625 252.5 L 51.625 252.5 L 51.625 239.125 L 74.125 239.125 L 74.125 245.5 L 63.875 245.5 L 63.875 326.875 L 98.375 326.875 L 98.375 337.5 L 155 337.5 L 155 334 L 162.25 334 L 162.25 339.375 L 160.5 339.375 L 160.5 380.50977 L 160.75 380.5 L 169.5 380.5 L 169.5 381.375 L 185.375 381.375 L 185.375 382.375 L 196.25 382.375 L 196.25 383.3125 L 213.125 383.3125 L 213.125 335.875 L 282 335.875 L 282 304.5 L 359.875 304.5 L 359.875 261.25 L 378.5 261.25 L 378.5 238.75 L 359.5 238.75 L 359.5 188.125 L 340.875 188.125 L 340.875 201.125 L 331.125 201.125 L 331.125 158.5 L 359.75 158.5 L 378.75 176.625 L 392.875 176.625 L 392.875 163.25 L 391 163.25 L 391 114.625 L 393 114.625 L 393 100.375 L 369.125 100.375 L 369.125 87 L 331.7207 87 L 331.7207 80.742188 L 329.51172 80.742188 L 329.51172 77.470703 L 347.01172 77.470703 L 347.01172 54.578125 L 268.70117 54.578125 L 268.70117 76.675781 L 209.56836 76.675781 L 209.56836 22.050781 L 176.95312 22.050781 z M 294.6875 68.455078 L 297.78125 68.455078 L 297.78125 77.382812 L 318.99414 77.382812 L 318.99414 80.652344 L 316.25391 80.652344 L 316.25391 87.105469 L 304.67383 87.105469 L 304.67383 116.17188 L 293.26562 116.17188 L 293.26562 120.82812 L 291.85742 120.79688 L 291.85742 97.357422 L 251.37695 97.357422 L 251.37695 90.464844 L 294.6875 90.464844 L 294.6875 68.455078 z M 209.375 90 L 241 90 L 241 123.75 L 255.375 123.75 L 255.375 146.98828 L 226.45117 146.98828 L 226.45117 170.05859 L 220.28125 170.09375 L 220.28125 157.78125 L 184.375 157.78125 L 184.375 180.89062 L 194.125 180.89062 L 194.125 182.375 L 174.125 182.375 L 174.125 192.375 L 171.125 192.375 L 171.125 179 L 148.625 179 L 148.625 192.125 L 142.375 192.125 L 142.375 145 L 163.5 145 L 163.5 116.375 L 177.125 116.375 L 177.125 121.625 L 199.125 121.625 L 199.125 100.5 L 209.375 90 z M 94.132812 91.966797 L 106.33203 91.966797 L 106.33203 116.22852 L 152.07227 116.22852 L 152.07227 136.86719 L 129.44531 136.86719 L 129.44531 156.22461 L 102.26562 156.13672 L 102.26562 118.57227 L 83.880859 118.57227 L 83.880859 98.595703 L 94.132812 98.595703 L 94.132812 91.966797 z M 332.33984 96.740234 L 360.27148 96.740234 L 360.27148 119.10156 L 332.51758 119.10156 L 332.33984 119.14062 L 332.33984 96.740234 z M 291.63672 130.63672 L 293.44922 130.63672 L 298.39844 140.88867 L 298.39844 171.11914 L 317.375 171.11914 L 317.375 187.5625 L 304.51953 187.5625 L 304.51953 198.29688 L 278.99805 198.25391 L 278.99805 181.5918 L 284.125 171.82617 L 284.125 159.62695 L 277.40625 159.62695 L 277.40625 138.01758 L 291.63672 138.01758 L 291.63672 130.63672 z M 41.099609 147.12109 L 72.919922 147.12109 L 72.919922 162.32422 L 41.099609 162.41211 L 41.099609 147.12109 z M 241.9375 157.8125 L 269.5625 157.8125 L 269.5625 159.6875 L 252.1875 159.6875 L 252.1875 215.5625 L 261.9375 225.4375 L 288.1875 225.4375 L 288.1875 211.8125 L 304.5625 211.8125 L 304.5625 233.3125 L 323.25 233.3125 L 336.6875 219.875 L 343.56641 219.875 L 343.56641 238.82422 L 336.9375 238.82422 L 336.9375 248.15625 L 335.375 248.15625 L 335.375 245.5 L 309.6875 245.5 L 309.6875 264.375 L 249.625 264.375 L 249.625 232.625 L 239.5625 232.625 L 239.5625 245.5 L 205.1875 245.5 L 205.1875 226.0625 L 193.125 226.0625 L 193.125 212.125 L 206.9375 212.125 L 206.9375 182.4375 L 202.125 182.4375 L 202.125 181 L 241.9375 181 L 241.9375 157.8125 z M 115.8125 178.8125 L 117.5625 178.8125 L 117.5625 220.5625 L 142.375 220.5625 L 142.375 206 L 174.1875 206 L 174.1875 226 L 166 226 L 166 258.375 L 163.875 258.375 L 163.875 245.0625 L 141.5 245.0625 L 141.5 258.375 L 129.5 258.375 L 129.5 247.125 L 109.4375 247.125 L 109.4375 279.4375 L 103.375 279.5 L 103.375 245.375 L 87.3125 245.375 L 87.3125 239.125 L 89.375 239.125 L 89.375 209.5625 L 40.8125 209.5625 L 40.8125 184.625 L 90.1875 184.625 L 90.1875 193.1875 L 115.8125 193.1875 L 115.8125 178.8125 z M 335.25781 256.45703 L 336.93555 256.45703 L 336.93555 265.20703 L 330.75 265.20703 L 330.75 284.21094 L 251.28711 284.21094 L 251.28711 318.4375 L 213.21875 318.4375 L 213.21875 308.75 L 204.35352 308.76172 L 204.35352 320.05273 L 126.79297 320.05273 L 124.09766 317.35742 L 124.09766 300.91602 L 103.41406 300.91602 L 103.41406 291.45898 L 129.40039 291.45898 L 129.40039 272.01367 L 141.15625 272.01367 L 141.15625 286.24414 L 163.87109 286.24414 L 163.87109 271.92578 L 165.81641 271.92578 L 165.81641 281.73633 L 205.06055 281.73633 L 205.06055 258.49023 L 239.44336 258.49023 L 239.44336 277.93555 L 322.5293 277.93555 L 322.5293 259.28516 L 335.25781 259.28516 L 335.25781 256.45703 z "
       style="fill:url(#linearGradient981);stroke:#ff4655;stroke-width:2;stroke-linecap:butt;stroke-linejoin:miter;stroke-opacity:1;stroke-miterlimit:4;stroke-dasharray:none;fill-opacity:1" />
  </g>
</svg>
