<?xml version="1.0" encoding="UTF-8" standalone="no"?>
<svg
   xmlns:dc="http://purl.org/dc/elements/1.1/"
   xmlns:cc="http://creativecommons.org/ns#"
   xmlns:rdf="http://www.w3.org/1999/02/22-rdf-syntax-ns#"
   xmlns:svg="http://www.w3.org/2000/svg"
   xmlns="http://www.w3.org/2000/svg"
   xmlns:xlink="http://www.w3.org/1999/xlink"
   width="300"
   height="100"
   viewBox="0 0 300 100"
   version="1.1"
   id="svg8">
  <defs
     id="defs2">
    <linearGradient
       id="linearGradient2082">
      <stop
         id="stop2078"
         offset="0"
         style="stop-color:#ff4655;stop-opacity:0.58823532" />
      <stop
         id="stop2080"
         offset="1"
         style="stop-color:#ff4655;stop-opacity:0;" />
    </linearGradient>
    <linearGradient
       gradientTransform="translate(-2.9017434,-0.93040353)"
       gradientUnits="userSpaceOnUse"
       y2="100.15144"
       x2="155.89282"
       y1="-0.04330517"
       x1="155.89282"
       id="linearGradient2084"
       xlink:href="#linearGradient2082" />
  </defs>
  <metadata
     id="metadata5">
    <rdf:RDF>
      <cc:Work
         rdf:about="">
        <dc:format>image/svg+xml</dc:format>
        <dc:type
           rdf:resource="http://purl.org/dc/dcmitype/StillImage" />
        <dc:title></dc:title>
      </cc:Work>
    </rdf:RDF>
  </metadata>
  <path
     id="path2071"
     d="m 136.50842,16.913346 -1.38672,1.970703 h -5.25782 l -3.14062,-1.824219 v 3.503907 H 80.934195 V 17.05983 H 77.356069 L 67.936148,27.94069 H 66.109976 V 26.991471 H 50.080679 v 1.09375 h -7.521484 v 0.621094 h -1.679688 c -1.285735,0 -1.253801,3.505859 0,3.505859 h 1.714844 v 0.621094 h 7.595703 v 0.65625 h 15.957031 v -1.240234 h 18.03711 c 0.460486,4.053207 2.63922,5.71875 3.580078,5.71875 0.861853,0 2.18277,-1.103802 2.412109,-2.181641 l 41.957038,0.851562 11.30859,2.685547 c -2.86943,13.595693 -11.05069,22.161032 -20.25781,29.445313 l 10.18445,14.089174 c 11.11608,-7.711406 21.68197,-17.143756 27.21789,-39.145815 1.28504,2.616364 2.03952,5.233245 1.96289,7.84961 0.89373,-1.574428 1.59041,-3.820313 3.20117,-3.820313 1.26281,0 3.09874,1.523438 6.32422,1.523437 4.60744,0 5.51068,-0.917165 7.66797,-1.314453 3.53525,-0.651054 6.98957,2.87993 4.77344,5.871094 2.44555,-0.688718 3.64967,-0.78363 4.46289,1.90625 l 2.375,7.849609 c -2.0404,2.932095 -0.60844,5.793409 1.64258,4.492188 l 8.65429,-5.001953 c 2.44876,-1.415532 2.25565,-4.504983 0.4375,-8.144531 -1.48113,-2.964907 -2.99548,-5.911512 -6.02539,-8.06836 -0.21627,-2.657726 -1.83214,-3.617187 -2.44531,-4.820312 -2.00308,-3.930308 0.55248,-6.780088 4.7832,-5.804688 l 25.81446,5.951172 6.5,5.695313 v 3.287109 l 7.23047,6.791016 h 19.35156 c 1.24864,0 1.90517,-0.977532 1.89844,-2.775391 l -0.0723,-19.498047 0.94922,-3.578125 v -3.140625 c 0,-3.491267 -2.07616,-3.871094 -4.38086,-3.871094 H 192.3756 l -7.81445,-4.527343 h -25.19336 v -1.898438 l -1.02148,-0.587891 h -4.89453 l -10.07813,1.171876 v 1.460937 l -1.41797,-0.378906 -3.10937,-3.417969 z m -57.837897,8.361328 h 11.320312 l -2.447266,2.921875 h -8.763671 c -2.315728,0 -2.136888,-2.921875 -0.109375,-2.921875 z m 92.343757,14.56836 3.39648,0.03711 c 3.28627,1.131938 1.57045,4.226144 0.25586,6.097656 1.94471,-1.252756 2.87405,-2.022145 3.79687,-5.476562 2.22862,1.004909 3.04485,6.477171 -1.57031,6.68164 l -5.76953,0.25586 c -4.56207,0 -4.98363,-7.648114 -0.10937,-7.595704 z"
     style="fill:url(#linearGradient2084);fill-opacity:1;stroke:#ff4655;stroke-width:2;stroke-linecap:butt;stroke-linejoin:miter;stroke-miterlimit:4;stroke-dasharray:none;stroke-opacity:1" />
</svg>
