<?xml version="1.0" encoding="UTF-8" standalone="no"?>
<svg
   xmlns:dc="http://purl.org/dc/elements/1.1/"
   xmlns:cc="http://creativecommons.org/ns#"
   xmlns:rdf="http://www.w3.org/1999/02/22-rdf-syntax-ns#"
   xmlns:svg="http://www.w3.org/2000/svg"
   xmlns="http://www.w3.org/2000/svg"
   xmlns:xlink="http://www.w3.org/1999/xlink"
   id="svg8"
   version="1.1"
   viewBox="0 0 200 400"
   height="400"
   width="200">
  <defs
     id="defs2">
    <linearGradient
       id="linearGradient1685">
      <stop
         id="stop1681"
         offset="0"
         style="stop-color:#ff4655;stop-opacity:0.03111111" />
      <stop
         id="stop1683"
         offset="1"
         style="stop-color:#ff4655;stop-opacity:0.58666664" />
    </linearGradient>
    <linearGradient
       gradientTransform="translate(-1.4447158,189.70791)"
       gradientUnits="userSpaceOnUse"
       y2="-0.4824698"
       x2="111.26698"
       y1="399.00662"
       x1="111.26698"
       id="linearGradient1687"
       xlink:href="#linearGradient1685" />
  </defs>
  <metadata
     id="metadata5">
    <rdf:RDF>
      <cc:Work
         rdf:about="">
        <dc:format>image/svg+xml</dc:format>
        <dc:type
           rdf:resource="http://purl.org/dc/dcmitype/StillImage" />
        <dc:title></dc:title>
      </cc:Work>
    </rdf:RDF>
  </metadata>
  <g
     transform="translate(0,-191.16665)"
     id="layer1">
    <path
       id="path1674"
       d="m 22.397084,221.16495 -4.80274,2.73242 9.60352,19.70117 c -5.70158,7.79133 -4.17968,4.64653 11.0918,34.27148 -3.20749,1.83373 -2.01257,7.45227 0.25,13.99023 l -2.40235,9.4375 c 1.90362,4.569 3.80923,8.32857 5.71289,10.09961 -1.66436,10.55911 0.24034,14.65857 2.98047,17.79688 7.9893,9.15022 4.68972,13.81188 12.83008,21.77148 l -3.39258,9.10547 4.7168,2.31836 c -4.83797,6.46193 -3.20908,11.1608 -3.22852,16.30859 l -5.13086,-5.13281 c 2.96292,21.17076 10.03399,43.49493 8.28321,63.2793 1.64769,2.93968 3.95072,9.00261 0.49023,14.7832 3.5266,7.86911 2.17676,13.91028 0.82813,19.95117 4.39709,24.81872 7.83544,48.08126 3.3125,58.44336 -5.22447,12.69813 -10.5031,18.19227 -13.82618,20.5293 -4.59222,3.22958 -6.29624,8.82267 0.084,9.93359 7.53778,1.31247 14.24802,-0.98353 19.94922,-6.45703 l 0.084,-2.48242 c 6.13275,0.6076 10.61518,-0.10742 10.59571,-3.47656 l -0.084,-14.32227 c -0.13531,-4.87229 -0.76689,-9.60875 -3.31055,-13.82422 -0.50688,-15.29134 1.52797,-29.76933 6.53907,-43.29492 -1.82842,-13.4106 -4.37442,-26.81987 -0.24805,-40.23047 l 1.07617,-8.52734 6.45703,-32.94727 -2.89648,-0.24804 -0.084,-9.4375 c 7.89793,1.69576 11.47899,11.45172 16.308596,18.875 l -3.22852,1.98632 15.39844,26.15821 5.95898,17.38476 4.05664,14.65235 3.64258,19.20508 c 10.43443,13.7312 20.15142,27.70307 22.76563,44.04101 v 22.59766 l 8.02929,3.22851 0.008,2.74219 c 13.63433,7.38714 21.91823,7.45673 21.90039,-0.86914 -6.3317,-4.93722 -11.45714,-9.80575 -12.54688,-17.80078 -1.26656,-3.81591 -1.91775,-7.54046 -6.77734,-11.88477 -5.91087,-17.00551 -8.56115,-33.40026 -11.00586,-49.75586 -1.96061,-5.18911 -3.7133,-10.50687 -7.375,-14.63281 0.42093,-7.46676 -0.98668,-13.56303 -4.09766,-18.38086 -0.79854,-16.36833 -3.71388,-30.88324 -6.18164,-45.79101 1.13984,0.8485 2.22459,1.78511 4.2207,1.24218 0.90556,4.65151 0.82844,8.2949 0.86914,12.25 0.0223,2.16781 2.53603,3.11729 3.3125,0.58008 0.14815,4.71265 3.41229,4.89886 4.26368,0.66211 0.71577,1.00352 0.7383,1.92043 0.57812,2.81445 -1.23018,2.00506 -1.31417,3.81677 1.07617,3.56055 1.4174,-0.15193 2.7934,-0.43933 3.56055,-2.65039 0.57458,2.89501 2.93201,2.67589 3.55859,0.74609 1.00345,-3.09051 0.60872,-6.18097 0.33204,-9.27148 -2.83456,-6.71576 -3.61146,-11.29642 -2.89844,-18.29492 -0.87577,-2.68249 -2.38919,-5.53028 -5.13086,-7.78125 l 1.1582,-4.80078 -4.13867,-6.29297 c -1.48182,-5.40562 -2.78125,-10.78143 -2.42188,-16.55469 0.48634,-7.81303 -2.61866,-14.65825 -8.33984,-20.61328 -1.68817,-4.87295 -2.69746,-10.45393 -0.82812,-19.03906 l 1.07617,-1.40821 -4.38672,-4.2207 c -0.4884,-12.84676 1.40133,-24.90232 4.88281,-36.42578 -3.98926,2.16219 -7.82808,4.44901 -10.51172,7.69922 -2.93467,-3.11024 -6.16293,-1.84313 -9.27148,-2.31836 -7.50579,-1.14748 -11.19464,-2.56682 -14.90234,-6.86914 -0.54304,-1.7699 0.0372,-3.30489 2.22265,-3.26758 2.19001,0.0374 2.29857,0.78293 2.33985,1.72657 2.766,-2.93239 4.1131,-17.49677 4.0996,-21.69336 -0.0113,-3.53198 -0.96375,-14.59376 -10.484366,-17.15039 -0.21082,-2.18091 -1.2957,-3.29422 -5.98828,-3.33399 -11.51769,-0.0976 -18.96854,8.58053 -19.00977,14.57813 -0.0608,8.84877 -0.998984,17.08724 -5.13293,19.53708 0,0 5.27026,1.61415 7.40832,1.49417 5.9865,-0.33593 7.87836,0.17844 7.99024,6.20508 -1.41004,9.43318 -9.21437,12.87189 -16.14258,16.14257 -3.09691,-1.65364 -6.278,-3.64482 -9.68555,-6.54101 l -0.41406,6.78906 -9.51953,-19.53711 3.0625,-2.23437 -1.98633,-2.56641 -2.63476,1.55273 c -5.33035,-7.52642 -9.03035,-27.92435 -15.99219,-22.58007 z m 93.707026,98.26171 c 1.24985,8.71549 4.15466,15.96054 7.36914,22.92969 0,0 -0.20664,3.87621 -0.006,4.53906 0.13702,5.1e-4 0.19255,0.0274 0.0879,0.0977 -0.0366,0.0246 -0.064,-0.0187 -0.0879,-0.0977 -0.84682,-0.003 -5.6562,1.22325 -6.69922,2.49805 l -2.48437,-4.55274 2.98046,-1.90429 -3.56054,-8.11329 -3.0625,0.66211 c 2.60308,-4.29405 3.88143,-10.19489 5.46289,-16.05859 z m 9.4375,31.04297 c 3.45113,5.95266 7.13992,11.58298 8.9414,19.78516 l -1.16015,9.27148 3.3125,0.99219 -0.41406,15.31445 c -1.65979,-2.47512 -3.7257,-4.13868 -3.14649,-11.0918 0.46095,-3.24966 -1.69736,-5.74571 -5.52148,-5.95508 l 4.69336,-2.73632 c -1.73683,-11.87341 -6.21099,-13.51113 -6.70508,-25.58008 z"
       style="fill:url(#linearGradient1687);fill-opacity:1;stroke:#ff4655;stroke-width:2;stroke-linecap:butt;stroke-linejoin:miter;stroke-miterlimit:4;stroke-dasharray:none;stroke-opacity:1" />
  </g>
</svg>
